<?xml version="1.0" standalone="no"?><!DOCTYPE svg PUBLIC "-//W3C//DTD SVG 1.1//EN" "http://www.w3.org/Graphics/SVG/1.1/DTD/svg11.dtd"><svg xmlns="http://www.w3.org/2000/svg" viewBox="0 0 650 400" version="1.1"><clipPath id="box"><rect x="0" y="0" width="650" height="400" style="fill:none;stroke:none;" /></clipPath><g clip-path="url(#box)"><rect x="0.00" y="0.00" width="650.00" height="400.00" style="fill:#FFFFFF;stroke:none;" /><path d="M42.30 0.00 L42.30 400.00 " style="fill:none;stroke:#000000;stroke-width:1;" /><path d="M0.00 362.54 L650.00 362.54 " style="fill:none;stroke:#000000;stroke-width:1;" /><text x="50.42112011681506" y="365.0418394995918" text-anchor="start" style="font:10px Droid Sans,Trebuchet MS,Arial,Helvetica,sans-serif;stroke:none;fill:#000000">0</text><text x="50.42112011681506" y="324.08183949959175" text-anchor="start" style="font:10px Droid Sans,Trebuchet MS,Arial,Helvetica,sans-serif;stroke:none;fill:#000000">2</text><text x="50.42112011681506" y="283.12183949959166" text-anchor="start" style="font:10px Droid Sans,Trebuchet MS,Arial,Helvetica,sans-serif;stroke:none;fill:#000000">4</text><text x="50.42112011681506" y="242.16183949959157" text-anchor="start" style="font:10px Droid Sans,Trebuchet MS,Arial,Helvetica,sans-serif;stroke:none;fill:#000000">6</text><text x="50.42112011681506" y="201.2018394995915" text-anchor="start" style="font:10px Droid Sans,Trebuchet MS,Arial,Helvetica,sans-serif;stroke:none;fill:#000000">8</text><text x="50.42112011681506" y="160.24183949959144" text-anchor="start" style="font:10px Droid Sans,Trebuchet MS,Arial,Helvetica,sans-serif;stroke:none;fill:#000000">10</text><text x="50.42112011681506" y="119.28183949959136" text-anchor="start" style="font:10px Droid Sans,Trebuchet MS,Arial,Helvetica,sans-serif;stroke:none;fill:#000000">12</text><text x="50.42112011681506" y="78.32183949959129" text-anchor="start" style="font:10px Droid Sans,Trebuchet MS,Arial,Helvetica,sans-serif;stroke:none;fill:#000000">14</text><text x="50.42112011681506" y="37.36183949959121" text-anchor="start" style="font:10px Droid Sans,Trebuchet MS,Arial,Helvetica,sans-serif;stroke:none;fill:#000000">16</text><text x="42.29612011681506" y="378.6668394995918" text-anchor="middle" style="font:10px Droid Sans,Trebuchet MS,Arial,Helvetica,sans-serif;stroke:none;fill:#000000">0</text><text x="83.25612011681513" y="378.6668394995918" text-anchor="middle" style="font:10px Droid Sans,Trebuchet MS,Arial,Helvetica,sans-serif;stroke:none;fill:#000000">2</text><text x="124.2161201168152" y="378.6668394995918" text-anchor="middle" style="font:10px Droid Sans,Trebuchet MS,Arial,Helvetica,sans-serif;stroke:none;fill:#000000">4</text><text x="165.1761201168153" y="378.6668394995918" text-anchor="middle" style="font:10px Droid Sans,Trebuchet MS,Arial,Helvetica,sans-serif;stroke:none;fill:#000000">6</text><text x="206.13612011681536" y="378.6668394995918" text-anchor="middle" style="font:10px Droid Sans,Trebuchet MS,Arial,Helvetica,sans-serif;stroke:none;fill:#000000">8</text><text x="247.09612011681543" y="378.6668394995918" text-anchor="middle" style="font:10px Droid Sans,Trebuchet MS,Arial,Helvetica,sans-serif;stroke:none;fill:#000000">10</text><text x="288.0561201168155" y="378.6668394995918" text-anchor="middle" style="font:10px Droid Sans,Trebuchet MS,Arial,Helvetica,sans-serif;stroke:none;fill:#000000">12</text><text x="329.0161201168156" y="378.6668394995918" text-anchor="middle" style="font:10px Droid Sans,Trebuchet MS,Arial,Helvetica,sans-serif;stroke:none;fill:#000000">14</text><text x="369.97612011681565" y="378.6668394995918" text-anchor="middle" style="font:10px Droid Sans,Trebuchet MS,Arial,Helvetica,sans-serif;stroke:none;fill:#000000">16</text><text x="410.9361201168157" y="378.6668394995918" text-anchor="middle" style="font:10px Droid Sans,Trebuchet MS,Arial,Helvetica,sans-serif;stroke:none;fill:#000000">18</text><text x="451.89612011681584" y="378.6668394995918" text-anchor="middle" style="font:10px Droid Sans,Trebuchet MS,Arial,Helvetica,sans-serif;stroke:none;fill:#000000">20</text><text x="492.8561201168159" y="378.6668394995918" text-anchor="middle" style="font:10px Droid Sans,Trebuchet MS,Arial,Helvetica,sans-serif;stroke:none;fill:#000000">22</text><text x="533.8161201168159" y="378.6668394995918" text-anchor="middle" style="font:10px Droid Sans,Trebuchet MS,Arial,Helvetica,sans-serif;stroke:none;fill:#000000">24</text><text x="574.7761201168161" y="378.6668394995918" text-anchor="middle" style="font:10px Droid Sans,Trebuchet MS,Arial,Helvetica,sans-serif;stroke:none;fill:#000000">26</text><text x="615.7361201168161" y="378.6668394995918" text-anchor="middle" style="font:10px Droid Sans,Trebuchet MS,Arial,Helvetica,sans-serif;stroke:none;fill:#000000">28</text><path d="M42.30 362.54 L42.30 362.54 L42.50 362.54 L42.71 362.53 L42.91 362.52 L43.12 362.51 L43.32 362.49 L43.52 362.47 L43.73 362.44 L43.93 362.41 L44.14 362.38 L44.34 362.34 L44.55 362.29 L44.75 362.25 L44.96 362.20 L45.16 362.14 L45.37 362.08 L45.57 362.02 L45.78 361.95 L45.98 361.88 L46.19 361.80 L46.39 361.72 L46.60 361.64 L46.80 361.55 L47.01 361.46 L47.21 361.36 L47.42 361.26 L47.62 361.16 L47.83 361.05 L48.03 360.94 L48.24 360.82 L48.44 360.70 L48.64 360.57 L48.85 360.44 L49.05 360.31 L49.26 360.17 L49.46 360.03 L49.67 359.89 L49.87 359.74 L50.08 359.58 L50.28 359.43 L50.49 359.27 L50.69 359.10 L50.90 358.93 L51.10 358.76 L51.31 358.58 L51.51 358.39 L51.72 358.21 L51.92 358.02 L52.13 357.82 L52.33 357.62 L52.54 357.42 L52.74 357.21 L52.95 357.00 L53.15 356.79 L53.36 356.57 L53.56 356.35 L53.76 356.12 L53.97 355.89 L54.17 355.65 L54.38 355.41 L54.58 355.17 L54.79 354.92 L54.99 354.67 L55.20 354.41 L55.40 354.15 L55.61 353.89 L55.81 353.62 L56.02 353.35 L56.22 353.07 L56.43 352.79 L56.63 352.51 L56.84 352.22 L57.04 351.93 L57.25 351.63 L57.45 351.33 L57.66 351.02 L57.86 350.71 L58.07 350.40 L58.27 350.08 L58.48 349.76 L58.68 349.43 L58.88 349.10 L59.09 348.77 L59.29 348.43 L59.50 348.09 L59.70 347.75 L59.91 347.39 L60.11 347.04 L60.32 346.68 L60.52 346.32 L60.73 345.95 L60.93 345.58 L61.14 345.21 L61.34 344.83 L61.55 344.45 L61.75 344.06 L61.96 343.67 L62.16 343.27 L62.37 342.87 L62.57 342.47 L62.78 342.06 L62.98 341.65 L63.19 341.23 L63.39 340.81 L63.60 340.39 L63.80 339.96 L64.00 339.53 L64.21 339.09 L64.41 338.65 L64.62 338.21 L64.82 337.76 L65.03 337.31 L65.23 336.85 L65.44 336.39 L65.64 335.93 L65.85 335.46 L66.05 334.98 L66.26 334.51 L66.46 334.03 L66.67 333.54 L66.87 333.05 L67.08 332.56 L67.28 332.06 L67.49 331.56 L67.69 331.05 L67.90 330.54 L68.10 330.03 L68.31 329.51 L68.51 328.99 L68.72 328.46 L68.92 327.93 L69.12 327.40 L69.33 326.86 L69.53 326.31 L69.74 325.77 L69.94 325.22 L70.15 324.66 L70.35 324.10 L70.56 323.54 L70.76 322.97 L70.97 322.40 L71.17 321.83 L71.38 321.25 L71.58 320.66 L71.79 320.07 L71.99 319.48 L72.20 318.89 L72.40 318.29 L72.61 317.68 L72.81 317.07 L73.02 316.46 L73.22 315.85 L73.43 315.22 L73.63 314.60 L73.84 313.97 L74.04 313.34 L74.24 312.70 L74.45 312.06 L74.65 311.42 L74.86 310.77 L75.06 310.11 L75.27 309.46 L75.47 308.79 L75.68 308.13 L75.88 307.46 L76.09 306.79 L76.29 306.11 L76.50 305.43 L76.70 304.74 L76.91 304.05 L77.11 303.35 L77.32 302.66 L77.52 301.95 L77.73 301.25 L77.93 300.54 L78.14 299.82 L78.34 299.10 L78.55 298.38 L78.75 297.65 L78.96 296.92 L79.16 296.19 L79.36 295.45 L79.57 294.70 L79.77 293.96 L79.98 293.20 L80.18 292.45 L80.39 291.69 L80.59 290.93 L80.80 290.16 L81.00 289.39 L81.21 288.61 L81.41 287.83 L81.62 287.04 L81.82 286.26 L82.03 285.46 L82.23 284.67 L82.44 283.87 L82.64 283.06 L82.85 282.25 L83.05 281.44 L83.26 280.62 L83.46 279.80 L83.67 278.98 L83.87 278.15 L84.08 277.31 L84.28 276.47 L84.48 275.63 L84.69 274.79 L84.89 273.94 L85.10 273.08 L85.30 272.23 L85.51 271.36 L85.71 270.50 L85.92 269.63 L86.12 268.75 L86.33 267.87 L86.53 266.99 L86.74 266.10 L86.94 265.21 L87.15 264.32 L87.35 263.42 L87.56 262.52 L87.76 261.61 L87.97 260.70 L88.17 259.78 L88.38 258.86 L88.58 257.94 L88.79 257.01 L88.99 256.08 L89.20 255.14 L89.40 254.20 L89.60 253.26 L89.81 252.31 L90.01 251.36 L90.22 250.40 L90.42 249.44 L90.63 248.48 L90.83 247.51 L91.04 246.53 L91.24 245.56 L91.45 244.58 L91.65 243.59 L91.86 242.60 L92.06 241.61 L92.27 240.61 L92.47 239.61 L92.68 238.61 L92.88 237.60 L93.09 236.58 L93.29 235.56 L93.50 234.54 L93.70 233.52 L93.91 232.49 L94.11 231.45 L94.32 230.41 L94.52 229.37 L94.72 228.32 L94.93 227.27 L95.13 226.22 L95.34 225.16 L95.54 224.10 L95.75 223.03 L95.95 221.96 L96.16 220.88 L96.36 219.80 L96.57 218.72 L96.77 217.63 L96.98 216.54 L97.18 215.45 L97.39 214.35 L97.59 213.24 L97.80 212.13 L98.00 211.02 L98.21 209.91 L98.41 208.79 L98.62 207.66 L98.82 206.53 L99.03 205.40 L99.23 204.26 L99.44 203.12 L99.64 201.98 L99.84 200.83 L100.05 199.68 L100.25 198.52 L100.46 197.36 L100.66 196.19 L100.87 195.02 L101.07 193.85 L101.28 192.67 L101.48 191.49 L101.69 190.31 L101.89 189.12 L102.10 187.92 L102.30 186.72 L102.51 185.52 L102.71 184.31 L102.92 183.10 L103.12 181.89 L103.33 180.67 L103.53 179.45 L103.74 178.22 L103.94 176.99 L104.15 175.76 L104.35 174.52 L104.56 173.27 L104.76 172.03 L104.96 170.78 L105.17 169.52 L105.37 168.26 L105.58 167.00 L105.78 165.73 L105.99 164.46 L106.19 163.18 L106.40 161.90 L106.60 160.62 L106.81 159.33 L107.01 158.04 L107.22 156.74 L107.42 155.44 L107.63 154.14 L107.83 152.83 L108.04 151.51 L108.24 150.20 L108.45 148.88 L108.65 147.55 L108.86 146.22 L109.06 144.89 L109.27 143.55 L109.47 142.21 L109.68 140.86 L109.88 139.51 L110.08 138.16 L110.29 136.80 L110.49 135.44 L110.70 134.08 L110.90 132.71 L111.11 131.33 L111.31 129.95 L111.52 128.57 L111.72 127.18 L111.93 125.79 L112.13 124.40 L112.34 123.00 L112.54 121.60 L112.75 120.19 L112.95 118.78 L113.16 117.36 L113.36 115.94 L113.57 114.52 L113.77 113.09 L113.98 111.66 L114.18 110.23 L114.39 108.79 L114.59 107.34 L114.80 105.89 L115.00 104.44 L115.20 102.99 L115.41 101.53 L115.61 100.06 L115.82 98.59 L116.02 97.12 L116.23 95.64 L116.43 94.16 L116.64 92.68 L116.84 91.19 L117.05 89.70 L117.25 88.20 L117.46 86.70 L117.66 85.19 L117.87 83.68 L118.07 82.17 L118.28 80.65 L118.48 79.13 L118.69 77.61 L118.89 76.08 L119.10 74.54 L119.30 73.00 L119.51 71.46 L119.71 69.92 L119.92 68.37 L120.12 66.81 L120.32 65.25 L120.53 63.69 L120.73 62.12 L120.94 60.55 L121.14 58.98 L121.35 57.40 L121.55 55.81 L121.76 54.23 L121.96 52.64 L122.17 51.04 L122.37 49.44 L122.58 47.84 L122.78 46.23 L122.99 44.62 L123.19 43.00 L123.40 41.38 L123.60 39.76 L123.81 38.13 L124.01 36.50 L124.22 34.86 L124.42 33.22 L124.63 31.58 L124.83 29.93 L125.04 28.28 L125.24 26.62 L125.44 24.96 L125.65 23.29 L125.85 21.62 L126.06 19.95 L126.26 18.27 L126.47 16.59 L126.67 14.91 L126.88 13.22 L127.08 11.52 L127.29 9.83 L127.49 8.12 L127.70 6.42 L127.90 4.71 L128.11 2.99 L128.31 1.27 L128.52 -0.45 " style="fill:none;stroke:#ff0000;stroke-width:1;" /><path d="M42.30 362.54 L42.30 362.54 L42.50 362.13 L42.71 361.72 L42.91 361.31 L43.12 360.90 L43.32 360.49 L43.52 360.08 L43.73 359.67 L43.93 359.27 L44.14 358.86 L44.34 358.45 L44.55 358.04 L44.75 357.63 L44.96 357.22 L45.16 356.81 L45.37 356.40 L45.57 355.99 L45.78 355.58 L45.98 355.17 L46.19 354.76 L46.39 354.35 L46.60 353.94 L46.80 353.53 L47.01 353.12 L47.21 352.71 L47.42 352.30 L47.62 351.89 L47.83 351.48 L48.03 351.07 L48.24 350.66 L48.44 350.25 L48.64 349.84 L48.85 349.43 L49.05 349.03 L49.26 348.62 L49.46 348.21 L49.67 347.80 L49.87 347.39 L50.08 346.98 L50.28 346.57 L50.49 346.16 L50.69 345.75 L50.90 345.34 L51.10 344.93 L51.31 344.52 L51.51 344.11 L51.72 343.70 L51.92 343.29 L52.13 342.88 L52.33 342.47 L52.54 342.06 L52.74 341.65 L52.95 341.24 L53.15 340.83 L53.36 340.42 L53.56 340.01 L53.76 339.60 L53.97 339.19 L54.17 338.79 L54.38 338.38 L54.58 337.97 L54.79 337.56 L54.99 337.15 L55.20 336.74 L55.40 336.33 L55.61 335.92 L55.81 335.51 L56.02 335.10 L56.22 334.69 L56.43 334.28 L56.63 333.87 L56.84 333.46 L57.04 333.05 L57.25 332.64 L57.45 332.23 L57.66 331.82 L57.86 331.41 L58.07 331.00 L58.27 330.59 L58.48 330.18 L58.68 329.77 L58.88 329.36 L59.09 328.95 L59.29 328.55 L59.50 328.14 L59.70 327.73 L59.91 327.32 L60.11 326.91 L60.32 326.50 L60.52 326.09 L60.73 325.68 L60.93 325.27 L61.14 324.86 L61.34 324.45 L61.55 324.04 L61.75 323.63 L61.96 323.22 L62.16 322.81 L62.37 322.40 L62.57 321.99 L62.78 321.58 L62.98 321.17 L63.19 320.76 L63.39 320.35 L63.60 319.94 L63.80 319.53 L64.00 319.12 L64.21 318.71 L64.41 318.31 L64.62 317.90 L64.82 317.49 L65.03 317.08 L65.23 316.67 L65.44 316.26 L65.64 315.85 L65.85 315.44 L66.05 315.03 L66.26 314.62 L66.46 314.21 L66.67 313.80 L66.87 313.39 L67.08 312.98 L67.28 312.57 L67.49 312.16 L67.69 311.75 L67.90 311.34 L68.10 310.93 L68.31 310.52 L68.51 310.11 L68.72 309.70 L68.92 309.29 L69.12 308.88 L69.33 308.47 L69.53 308.07 L69.74 307.66 L69.94 307.25 L70.15 306.84 L70.35 306.43 L70.56 306.02 L70.76 305.61 L70.97 305.20 L71.17 304.79 L71.38 304.38 L71.58 303.97 L71.79 303.56 L71.99 303.15 L72.20 302.74 L72.40 302.33 L72.61 301.92 L72.81 301.51 L73.02 301.10 L73.22 300.69 L73.43 300.28 L73.63 299.87 L73.84 299.46 L74.04 299.05 L74.24 298.64 L74.45 298.23 L74.65 297.83 L74.86 297.42 L75.06 297.01 L75.27 296.60 L75.47 296.19 L75.68 295.78 L75.88 295.37 L76.09 294.96 L76.29 294.55 L76.50 294.14 L76.70 293.73 L76.91 293.32 L77.11 292.91 L77.32 292.50 L77.52 292.09 L77.73 291.68 L77.93 291.27 L78.14 290.86 L78.34 290.45 L78.55 290.04 L78.75 289.63 L78.96 289.22 L79.16 288.81 L79.36 288.40 L79.57 287.99 L79.77 287.59 L79.98 287.18 L80.18 286.77 L80.39 286.36 L80.59 285.95 L80.80 285.54 L81.00 285.13 L81.21 284.72 L81.41 284.31 L81.62 283.90 L81.82 283.49 L82.03 283.08 L82.23 282.67 L82.44 282.26 L82.64 281.85 L82.85 281.44 L83.05 281.03 L83.26 280.62 L83.46 280.21 L83.67 279.80 L83.87 279.39 L84.08 278.98 L84.28 278.57 L84.48 278.16 L84.69 277.75 L84.89 277.35 L85.10 276.94 L85.30 276.53 L85.51 276.12 L85.71 275.71 L85.92 275.30 L86.12 274.89 L86.33 274.48 L86.53 274.07 L86.74 273.66 L86.94 273.25 L87.15 272.84 L87.35 272.43 L87.56 272.02 L87.76 271.61 L87.97 271.20 L88.17 270.79 L88.38 270.38 L88.58 269.97 L88.79 269.56 L88.99 269.15 L89.20 268.74 L89.40 268.33 L89.60 267.92 L89.81 267.51 L90.01 267.11 L90.22 266.70 L90.42 266.29 L90.63 265.88 L90.83 265.47 L91.04 265.06 L91.24 264.65 L91.45 264.24 L91.65 263.83 L91.86 263.42 L92.06 263.01 L92.27 262.60 L92.47 262.19 L92.68 261.78 L92.88 261.37 L93.09 260.96 L93.29 260.55 L93.50 260.14 L93.70 259.73 L93.91 259.32 L94.11 258.91 L94.32 258.50 L94.52 258.09 L94.72 257.68 L94.93 257.27 L95.13 256.87 L95.34 256.46 L95.54 256.05 L95.75 255.64 L95.95 255.23 L96.16 254.82 L96.36 254.41 L96.57 254.00 L96.77 253.59 L96.98 253.18 L97.18 252.77 L97.39 252.36 L97.59 251.95 L97.80 251.54 L98.00 251.13 L98.21 250.72 L98.41 250.31 L98.62 249.90 L98.82 249.49 L99.03 249.08 L99.23 248.67 L99.44 248.26 L99.64 247.85 L99.84 247.44 L100.05 247.03 L100.25 246.63 L100.46 246.22 L100.66 245.81 L100.87 245.40 L101.07 244.99 L101.28 244.58 L101.48 244.17 L101.69 243.76 L101.89 243.35 L102.10 242.94 L102.30 242.53 L102.51 242.12 L102.71 241.71 L102.92 241.30 L103.12 240.89 L103.33 240.48 L103.53 240.07 L103.74 239.66 L103.94 239.25 L104.15 238.84 L104.35 238.43 L104.56 238.02 L104.76 237.61 L104.96 237.20 L105.17 236.79 L105.37 236.39 L105.58 235.98 L105.78 235.57 L105.99 235.16 L106.19 234.75 L106.40 234.34 L106.60 233.93 L106.81 233.52 L107.01 233.11 L107.22 232.70 L107.42 232.29 L107.63 231.88 L107.83 231.47 L108.04 231.06 L108.24 230.65 L108.45 230.24 L108.65 229.83 L108.86 229.42 L109.06 229.01 L109.27 228.60 L109.47 228.19 L109.68 227.78 L109.88 227.37 L110.08 226.96 L110.29 226.55 L110.49 226.15 L110.70 225.74 L110.90 225.33 L111.11 224.92 L111.31 224.51 L111.52 224.10 L111.72 223.69 L111.93 223.28 L112.13 222.87 L112.34 222.46 L112.54 222.05 L112.75 221.64 L112.95 221.23 L113.16 220.82 L113.36 220.41 L113.57 220.00 L113.77 219.59 L113.98 219.18 L114.18 218.77 L114.39 218.36 L114.59 217.95 L114.80 217.54 L115.00 217.13 L115.20 216.72 L115.41 216.31 L115.61 215.91 L115.82 215.50 L116.02 215.09 L116.23 214.68 L116.43 214.27 L116.64 213.86 L116.84 213.45 L117.05 213.04 L117.25 212.63 L117.46 212.22 L117.66 211.81 L117.87 211.40 L118.07 210.99 L118.28 210.58 L118.48 210.17 L118.69 209.76 L118.89 209.35 L119.10 208.94 L119.30 208.53 L119.51 208.12 L119.71 207.71 L119.92 207.30 L120.12 206.89 L120.32 206.48 L120.53 206.07 L120.73 205.67 L120.94 205.26 L121.14 204.85 L121.35 204.44 L121.55 204.03 L121.76 203.62 L121.96 203.21 L122.17 202.80 L122.37 202.39 L122.58 201.98 L122.78 201.57 L122.99 201.16 L123.19 200.75 L123.40 200.34 L123.60 199.93 L123.81 199.52 L124.01 199.11 L124.22 198.70 L124.42 198.29 L124.63 197.88 L124.83 197.47 L125.04 197.06 L125.24 196.65 L125.44 196.24 L125.65 195.83 L125.85 195.43 L126.06 195.02 L126.26 194.61 L126.47 194.20 L126.67 193.79 L126.88 193.38 L127.08 192.97 L127.29 192.56 L127.49 192.15 L127.70 191.74 L127.90 191.33 L128.11 190.92 L128.31 190.51 L128.52 190.10 L128.72 189.69 L128.93 189.28 L129.13 188.87 L129.34 188.46 L129.54 188.05 L129.75 187.64 L129.95 187.23 L130.16 186.82 L130.36 186.41 L130.56 186.00 L130.77 185.59 L130.97 185.19 L131.18 184.78 L131.38 184.37 L131.59 183.96 L131.79 183.55 L132.00 183.14 L132.20 182.73 L132.41 182.32 L132.61 181.91 L132.82 181.50 L133.02 181.09 L133.23 180.68 L133.43 180.27 L133.64 179.86 L133.84 179.45 L134.05 179.04 L134.25 178.63 L134.46 178.22 L134.66 177.81 L134.87 177.40 L135.07 176.99 L135.28 176.58 L135.48 176.17 L135.68 175.76 L135.89 175.35 L136.09 174.95 L136.30 174.54 L136.50 174.13 L136.71 173.72 L136.91 173.31 L137.12 172.90 L137.32 172.49 L137.53 172.08 L137.73 171.67 L137.94 171.26 L138.14 170.85 L138.35 170.44 L138.55 170.03 L138.76 169.62 L138.96 169.21 L139.17 168.80 L139.37 168.39 L139.58 167.98 L139.78 167.57 L139.99 167.16 L140.19 166.75 L140.40 166.34 L140.60 165.93 L140.80 165.52 L141.01 165.11 L141.21 164.71 L141.42 164.30 L141.62 163.89 L141.83 163.48 L142.03 163.07 L142.24 162.66 L142.44 162.25 L142.65 161.84 L142.85 161.43 L143.06 161.02 L143.26 160.61 L143.47 160.20 L143.67 159.79 L143.88 159.38 L144.08 158.97 L144.29 158.56 L144.49 158.15 L144.70 157.74 L144.90 157.33 L145.11 156.92 L145.31 156.51 L145.52 156.10 L145.72 155.69 L145.92 155.28 L146.13 154.87 L146.33 154.47 L146.54 154.06 L146.74 153.65 L146.95 153.24 L147.15 152.83 L147.36 152.42 L147.56 152.01 L147.77 151.60 L147.97 151.19 L148.18 150.78 L148.38 150.37 L148.59 149.96 L148.79 149.55 L149.00 149.14 L149.20 148.73 L149.41 148.32 L149.61 147.91 L149.82 147.50 L150.02 147.09 L150.23 146.68 L150.43 146.27 L150.64 145.86 L150.84 145.45 L151.04 145.04 L151.25 144.63 L151.45 144.23 L151.66 143.82 L151.86 143.41 L152.07 143.00 L152.27 142.59 L152.48 142.18 L152.68 141.77 L152.89 141.36 L153.09 140.95 L153.30 140.54 L153.50 140.13 L153.71 139.72 L153.91 139.31 L154.12 138.90 L154.32 138.49 L154.53 138.08 L154.73 137.67 L154.94 137.26 L155.14 136.85 L155.35 136.44 L155.55 136.03 L155.76 135.62 L155.96 135.21 L156.16 134.80 L156.37 134.39 L156.57 133.99 L156.78 133.58 L156.98 133.17 L157.19 132.76 L157.39 132.35 L157.60 131.94 L157.80 131.53 L158.01 131.12 L158.21 130.71 L158.42 130.30 L158.62 129.89 L158.83 129.48 L159.03 129.07 L159.24 128.66 L159.44 128.25 L159.65 127.84 L159.85 127.43 L160.06 127.02 L160.26 126.61 L160.47 126.20 L160.67 125.79 L160.88 125.38 L161.08 124.97 L161.28 124.56 L161.49 124.15 L161.69 123.75 L161.90 123.34 L162.10 122.93 L162.31 122.52 L162.51 122.11 L162.72 121.70 L162.92 121.29 L163.13 120.88 L163.33 120.47 L163.54 120.06 L163.74 119.65 L163.95 119.24 L164.15 118.83 L164.36 118.42 L164.56 118.01 L164.77 117.60 L164.97 117.19 L165.18 116.78 L165.38 116.37 L165.59 115.96 L165.79 115.55 L166.00 115.14 L166.20 114.73 L166.40 114.32 L166.61 113.91 L166.81 113.51 L167.02 113.10 L167.22 112.69 L167.43 112.28 L167.63 111.87 L167.84 111.46 L168.04 111.05 L168.25 110.64 L168.45 110.23 L168.66 109.82 L168.86 109.41 L169.07 109.00 L169.27 108.59 L169.48 108.18 L169.68 107.77 L169.89 107.36 L170.09 106.95 L170.30 106.54 L170.50 106.13 L170.71 105.72 L170.91 105.31 L171.12 104.90 L171.32 104.49 L171.52 104.08 L171.73 103.67 L171.93 103.27 L172.14 102.86 L172.34 102.45 L172.55 102.04 L172.75 101.63 L172.96 101.22 L173.16 100.81 L173.37 100.40 L173.57 99.99 L173.78 99.58 L173.98 99.17 L174.19 98.76 L174.39 98.35 L174.60 97.94 L174.80 97.53 L175.01 97.12 L175.21 96.71 L175.42 96.30 L175.62 95.89 L175.83 95.48 L176.03 95.07 L176.24 94.66 L176.44 94.25 L176.64 93.84 L176.85 93.43 L177.05 93.03 L177.26 92.62 L177.46 92.21 L177.67 91.80 L177.87 91.39 L178.08 90.98 L178.28 90.57 L178.49 90.16 L178.69 89.75 L178.90 89.34 L179.10 88.93 L179.31 88.52 L179.51 88.11 L179.72 87.70 L179.92 87.29 L180.13 86.88 L180.33 86.47 L180.54 86.06 L180.74 85.65 L180.95 85.24 L181.15 84.83 L181.36 84.42 L181.56 84.01 L181.76 83.60 L181.97 83.19 L182.17 82.79 L182.38 82.38 L182.58 81.97 L182.79 81.56 L182.99 81.15 L183.20 80.74 L183.40 80.33 L183.61 79.92 L183.81 79.51 L184.02 79.10 L184.22 78.69 L184.43 78.28 L184.63 77.87 L184.84 77.46 L185.04 77.05 L185.25 76.64 L185.45 76.23 L185.66 75.82 L185.86 75.41 L186.07 75.00 L186.27 74.59 L186.48 74.18 L186.68 73.77 L186.88 73.36 L187.09 72.95 L187.29 72.55 L187.50 72.14 L187.70 71.73 L187.91 71.32 L188.11 70.91 L188.32 70.50 L188.52 70.09 L188.73 69.68 L188.93 69.27 L189.14 68.86 L189.34 68.45 L189.55 68.04 L189.75 67.63 L189.96 67.22 L190.16 66.81 L190.37 66.40 L190.57 65.99 L190.78 65.58 L190.98 65.17 L191.19 64.76 L191.39 64.35 L191.60 63.94 L191.80 63.53 L192.00 63.12 L192.21 62.71 L192.41 62.31 L192.62 61.90 L192.82 61.49 L193.03 61.08 L193.23 60.67 L193.44 60.26 L193.64 59.85 L193.85 59.44 L194.05 59.03 L194.26 58.62 L194.46 58.21 L194.67 57.80 L194.87 57.39 L195.08 56.98 L195.28 56.57 L195.49 56.16 L195.69 55.75 L195.90 55.34 L196.10 54.93 L196.31 54.52 L196.51 54.11 L196.72 53.70 L196.92 53.29 L197.12 52.88 L197.33 52.47 L197.53 52.07 L197.74 51.66 L197.94 51.25 L198.15 50.84 L198.35 50.43 L198.56 50.02 L198.76 49.61 L198.97 49.20 L199.17 48.79 L199.38 48.38 L199.58 47.97 L199.79 47.56 L199.99 47.15 L200.20 46.74 L200.40 46.33 L200.61 45.92 L200.81 45.51 L201.02 45.10 L201.22 44.69 L201.43 44.28 L201.63 43.87 L201.84 43.46 L202.04 43.05 L202.24 42.64 L202.45 42.23 L202.65 41.83 L202.86 41.42 L203.06 41.01 L203.27 40.60 L203.47 40.19 L203.68 39.78 L203.88 39.37 L204.09 38.96 L204.29 38.55 L204.50 38.14 L204.70 37.73 L204.91 37.32 L205.11 36.91 L205.32 36.50 L205.52 36.09 L205.73 35.68 L205.93 35.27 L206.14 34.86 L206.34 34.45 L206.55 34.04 L206.75 33.63 L206.96 33.22 L207.16 32.81 L207.36 32.40 L207.57 31.99 L207.77 31.59 L207.98 31.18 L208.18 30.77 L208.39 30.36 L208.59 29.95 L208.80 29.54 L209.00 29.13 L209.21 28.72 L209.41 28.31 L209.62 27.90 L209.82 27.49 L210.03 27.08 L210.23 26.67 L210.44 26.26 L210.64 25.85 L210.85 25.44 L211.05 25.03 L211.26 24.62 L211.46 24.21 L211.67 23.80 L211.87 23.39 L212.08 22.98 L212.28 22.57 L212.48 22.16 L212.69 21.75 L212.89 21.35 L213.10 20.94 L213.30 20.53 L213.51 20.12 L213.71 19.71 L213.92 19.30 L214.12 18.89 L214.33 18.48 L214.53 18.07 L214.74 17.66 L214.94 17.25 L215.15 16.84 L215.35 16.43 L215.56 16.02 L215.76 15.61 L215.97 15.20 L216.17 14.79 L216.38 14.38 L216.58 13.97 L216.79 13.56 L216.99 13.15 L217.20 12.74 L217.40 12.33 L217.60 11.92 L217.81 11.51 L218.01 11.11 L218.22 10.70 L218.42 10.29 L218.63 9.88 L218.83 9.47 L219.04 9.06 L219.24 8.65 L219.45 8.24 L219.65 7.83 L219.86 7.42 L220.06 7.01 L220.27 6.60 L220.47 6.19 L220.68 5.78 L220.88 5.37 L221.09 4.96 L221.29 4.55 L221.50 4.14 L221.70 3.73 L221.91 3.32 L222.11 2.91 L222.32 2.50 L222.52 2.09 L222.72 1.68 L222.93 1.27 L223.13 0.87 L223.34 0.46 L223.54 0.05 L223.75 -0.36 " style="fill:none;stroke:#0015FC;stroke-width:1;" /><path d="M42.30 362.54 L42.30 362.54 L42.50 362.34 L42.71 362.13 L42.91 361.93 L43.12 361.72 L43.32 361.52 L43.52 361.31 L43.73 361.11 L43.93 360.90 L44.14 360.70 L44.34 360.49 L44.55 360.29 L44.75 360.08 L44.96 359.88 L45.16 359.67 L45.37 359.47 L45.57 359.27 L45.78 359.06 L45.98 358.86 L46.19 358.65 L46.39 358.45 L46.60 358.24 L46.80 358.04 L47.01 357.83 L47.21 357.63 L47.42 357.42 L47.62 357.22 L47.83 357.01 L48.03 356.81 L48.24 356.60 L48.44 356.40 L48.64 356.19 L48.85 355.99 L49.05 355.78 L49.26 355.58 L49.46 355.37 L49.67 355.17 L49.87 354.96 L50.08 354.76 L50.28 354.55 L50.49 354.35 L50.69 354.15 L50.90 353.94 L51.10 353.74 L51.31 353.53 L51.51 353.33 L51.72 353.12 L51.92 352.92 L52.13 352.71 L52.33 352.51 L52.54 352.30 L52.74 352.10 L52.95 351.89 L53.15 351.69 L53.36 351.48 L53.56 351.28 L53.76 351.07 L53.97 350.87 L54.17 350.66 L54.38 350.46 L54.58 350.25 L54.79 350.05 L54.99 349.84 L55.20 349.64 L55.40 349.43 L55.61 349.23 L55.81 349.03 L56.02 348.82 L56.22 348.62 L56.43 348.41 L56.63 348.21 L56.84 348.00 L57.04 347.80 L57.25 347.59 L57.45 347.39 L57.66 347.18 L57.86 346.98 L58.07 346.77 L58.27 346.57 L58.48 346.36 L58.68 346.16 L58.88 345.95 L59.09 345.75 L59.29 345.54 L59.50 345.34 L59.70 345.13 L59.91 344.93 L60.11 344.72 L60.32 344.52 L60.52 344.31 L60.73 344.11 L60.93 343.91 L61.14 343.70 L61.34 343.50 L61.55 343.29 L61.75 343.09 L61.96 342.88 L62.16 342.68 L62.37 342.47 L62.57 342.27 L62.78 342.06 L62.98 341.86 L63.19 341.65 L63.39 341.45 L63.60 341.24 L63.80 341.04 L64.00 340.83 L64.21 340.63 L64.41 340.42 L64.62 340.22 L64.82 340.01 L65.03 339.81 L65.23 339.60 L65.44 339.40 L65.64 339.19 L65.85 338.99 L66.05 338.79 L66.26 338.58 L66.46 338.38 L66.67 338.17 L66.87 337.97 L67.08 337.76 L67.28 337.56 L67.49 337.35 L67.69 337.15 L67.90 336.94 L68.10 336.74 L68.31 336.53 L68.51 336.33 L68.72 336.12 L68.92 335.92 L69.12 335.71 L69.33 335.51 L69.53 335.30 L69.74 335.10 L69.94 334.89 L70.15 334.69 L70.35 334.48 L70.56 334.28 L70.76 334.07 L70.97 333.87 L71.17 333.67 L71.38 333.46 L71.58 333.26 L71.79 333.05 L71.99 332.85 L72.20 332.64 L72.40 332.44 L72.61 332.23 L72.81 332.03 L73.02 331.82 L73.22 331.62 L73.43 331.41 L73.63 331.21 L73.84 331.00 L74.04 330.80 L74.24 330.59 L74.45 330.39 L74.65 330.18 L74.86 329.98 L75.06 329.77 L75.27 329.57 L75.47 329.36 L75.68 329.16 L75.88 328.95 L76.09 328.75 L76.29 328.55 L76.50 328.34 L76.70 328.14 L76.91 327.93 L77.11 327.73 L77.32 327.52 L77.52 327.32 L77.73 327.11 L77.93 326.91 L78.14 326.70 L78.34 326.50 L78.55 326.29 L78.75 326.09 L78.96 325.88 L79.16 325.68 L79.36 325.47 L79.57 325.27 L79.77 325.06 L79.98 324.86 L80.18 324.65 L80.39 324.45 L80.59 324.24 L80.80 324.04 L81.00 323.83 L81.21 323.63 L81.41 323.43 L81.62 323.22 L81.82 323.02 L82.03 322.81 L82.23 322.61 L82.44 322.40 L82.64 322.20 L82.85 321.99 L83.05 321.79 L83.26 321.58 L83.46 321.38 L83.67 321.17 L83.87 320.97 L84.08 320.76 L84.28 320.56 L84.48 320.35 L84.69 320.15 L84.89 319.94 L85.10 319.74 L85.30 319.53 L85.51 319.33 L85.71 319.12 L85.92 318.92 L86.12 318.71 L86.33 318.51 L86.53 318.31 L86.74 318.10 L86.94 317.90 L87.15 317.69 L87.35 317.49 L87.56 317.28 L87.76 317.08 L87.97 316.87 L88.17 316.67 L88.38 316.46 L88.58 316.26 L88.79 316.05 L88.99 315.85 L89.20 315.64 L89.40 315.44 L89.60 315.23 L89.81 315.03 L90.01 314.82 L90.22 314.62 L90.42 314.41 L90.63 314.21 L90.83 314.00 L91.04 313.80 L91.24 313.59 L91.45 313.39 L91.65 313.19 L91.86 312.98 L92.06 312.78 L92.27 312.57 L92.47 312.37 L92.68 312.16 L92.88 311.96 L93.09 311.75 L93.29 311.55 L93.50 311.34 L93.70 311.14 L93.91 310.93 L94.11 310.73 L94.32 310.52 L94.52 310.32 L94.72 310.11 L94.93 309.91 L95.13 309.70 L95.34 309.50 L95.54 309.29 L95.75 309.09 L95.95 308.88 L96.16 308.68 L96.36 308.47 L96.57 308.27 L96.77 308.07 L96.98 307.86 L97.18 307.66 L97.39 307.45 L97.59 307.25 L97.80 307.04 L98.00 306.84 L98.21 306.63 L98.41 306.43 L98.62 306.22 L98.82 306.02 L99.03 305.81 L99.23 305.61 L99.44 305.40 L99.64 305.20 L99.84 304.99 L100.05 304.79 L100.25 304.58 L100.46 304.38 L100.66 304.17 L100.87 303.97 L101.07 303.76 L101.28 303.56 L101.48 303.35 L101.69 303.15 L101.89 302.95 L102.10 302.74 L102.30 302.54 L102.51 302.33 L102.71 302.13 L102.92 301.92 L103.12 301.72 L103.33 301.51 L103.53 301.31 L103.74 301.10 L103.94 300.90 L104.15 300.69 L104.35 300.49 L104.56 300.28 L104.76 300.08 L104.96 299.87 L105.17 299.67 L105.37 299.46 L105.58 299.26 L105.78 299.05 L105.99 298.85 L106.19 298.64 L106.40 298.44 L106.60 298.23 L106.81 298.03 L107.01 297.83 L107.22 297.62 L107.42 297.42 L107.63 297.21 L107.83 297.01 L108.04 296.80 L108.24 296.60 L108.45 296.39 L108.65 296.19 L108.86 295.98 L109.06 295.78 L109.27 295.57 L109.47 295.37 L109.68 295.16 L109.88 294.96 L110.08 294.75 L110.29 294.55 L110.49 294.34 L110.70 294.14 L110.90 293.93 L111.11 293.73 L111.31 293.52 L111.52 293.32 L111.72 293.11 L111.93 292.91 L112.13 292.71 L112.34 292.50 L112.54 292.30 L112.75 292.09 L112.95 291.89 L113.16 291.68 L113.36 291.48 L113.57 291.27 L113.77 291.07 L113.98 290.86 L114.18 290.66 L114.39 290.45 L114.59 290.25 L114.80 290.04 L115.00 289.84 L115.20 289.63 L115.41 289.43 L115.61 289.22 L115.82 289.02 L116.02 288.81 L116.23 288.61 L116.43 288.40 L116.64 288.20 L116.84 287.99 L117.05 287.79 L117.25 287.59 L117.46 287.38 L117.66 287.18 L117.87 286.97 L118.07 286.77 L118.28 286.56 L118.48 286.36 L118.69 286.15 L118.89 285.95 L119.10 285.74 L119.30 285.54 L119.51 285.33 L119.71 285.13 L119.92 284.92 L120.12 284.72 L120.32 284.51 L120.53 284.31 L120.73 284.10 L120.94 283.90 L121.14 283.69 L121.35 283.49 L121.55 283.28 L121.76 283.08 L121.96 282.87 L122.17 282.67 L122.37 282.47 L122.58 282.26 L122.78 282.06 L122.99 281.85 L123.19 281.65 L123.40 281.44 L123.60 281.24 L123.81 281.03 L124.01 280.83 L124.22 280.62 L124.42 280.42 L124.63 280.21 L124.83 280.01 L125.04 279.80 L125.24 279.60 L125.44 279.39 L125.65 279.19 L125.85 278.98 L126.06 278.78 L126.26 278.57 L126.47 278.37 L126.67 278.16 L126.88 277.96 L127.08 277.75 L127.29 277.55 L127.49 277.35 L127.70 277.14 L127.90 276.94 L128.11 276.73 L128.31 276.53 L128.52 276.32 L128.72 276.12 L128.93 275.91 L129.13 275.71 L129.34 275.50 L129.54 275.30 L129.75 275.09 L129.95 274.89 L130.16 274.68 L130.36 274.48 L130.56 274.27 L130.77 274.07 L130.97 273.86 L131.18 273.66 L131.38 273.45 L131.59 273.25 L131.79 273.04 L132.00 272.84 L132.20 272.63 L132.41 272.43 L132.61 272.23 L132.82 272.02 L133.02 271.82 L133.23 271.61 L133.43 271.41 L133.64 271.20 L133.84 271.00 L134.05 270.79 L134.25 270.59 L134.46 270.38 L134.66 270.18 L134.87 269.97 L135.07 269.77 L135.28 269.56 L135.48 269.36 L135.68 269.15 L135.89 268.95 L136.09 268.74 L136.30 268.54 L136.50 268.33 L136.71 268.13 L136.91 267.92 L137.12 267.72 L137.32 267.51 L137.53 267.31 L137.73 267.11 L137.94 266.90 L138.14 266.70 L138.35 266.49 L138.55 266.29 L138.76 266.08 L138.96 265.88 L139.17 265.67 L139.37 265.47 L139.58 265.26 L139.78 265.06 L139.99 264.85 L140.19 264.65 L140.40 264.44 L140.60 264.24 L140.80 264.03 L141.01 263.83 L141.21 263.62 L141.42 263.42 L141.62 263.21 L141.83 263.01 L142.03 262.80 L142.24 262.60 L142.44 262.39 L142.65 262.19 L142.85 261.99 L143.06 261.78 L143.26 261.58 L143.47 261.37 L143.67 261.17 L143.88 260.96 L144.08 260.76 L144.29 260.55 L144.49 260.35 L144.70 260.14 L144.90 259.94 L145.11 259.73 L145.31 259.53 L145.52 259.32 L145.72 259.12 L145.92 258.91 L146.13 258.71 L146.33 258.50 L146.54 258.30 L146.74 258.09 L146.95 257.89 L147.15 257.68 L147.36 257.48 L147.56 257.27 L147.77 257.07 L147.97 256.87 L148.18 256.66 L148.38 256.46 L148.59 256.25 L148.79 256.05 L149.00 255.84 L149.20 255.64 L149.41 255.43 L149.61 255.23 L149.82 255.02 L150.02 254.82 L150.23 254.61 L150.43 254.41 L150.64 254.20 L150.84 254.00 L151.04 253.79 L151.25 253.59 L151.45 253.38 L151.66 253.18 L151.86 252.97 L152.07 252.77 L152.27 252.56 L152.48 252.36 L152.68 252.15 L152.89 251.95 L153.09 251.75 L153.30 251.54 L153.50 251.34 L153.71 251.13 L153.91 250.93 L154.12 250.72 L154.32 250.52 L154.53 250.31 L154.73 250.11 L154.94 249.90 L155.14 249.70 L155.35 249.49 L155.55 249.29 L155.76 249.08 L155.96 248.88 L156.16 248.67 L156.37 248.47 L156.57 248.26 L156.78 248.06 L156.98 247.85 L157.19 247.65 L157.39 247.44 L157.60 247.24 L157.80 247.03 L158.01 246.83 L158.21 246.63 L158.42 246.42 L158.62 246.22 L158.83 246.01 L159.03 245.81 L159.24 245.60 L159.44 245.40 L159.65 245.19 L159.85 244.99 L160.06 244.78 L160.26 244.58 L160.47 244.37 L160.67 244.17 L160.88 243.96 L161.08 243.76 L161.28 243.55 L161.49 243.35 L161.69 243.14 L161.90 242.94 L162.10 242.73 L162.31 242.53 L162.51 242.32 L162.72 242.12 L162.92 241.91 L163.13 241.71 L163.33 241.51 L163.54 241.30 L163.74 241.10 L163.95 240.89 L164.15 240.69 L164.36 240.48 L164.56 240.28 L164.77 240.07 L164.97 239.87 L165.18 239.66 L165.38 239.46 L165.59 239.25 L165.79 239.05 L166.00 238.84 L166.20 238.64 L166.40 238.43 L166.61 238.23 L166.81 238.02 L167.02 237.82 L167.22 237.61 L167.43 237.41 L167.63 237.20 L167.84 237.00 L168.04 236.79 L168.25 236.59 L168.45 236.39 L168.66 236.18 L168.86 235.98 L169.07 235.77 L169.27 235.57 L169.48 235.36 L169.68 235.16 L169.89 234.95 L170.09 234.75 L170.30 234.54 L170.50 234.34 L170.71 234.13 L170.91 233.93 L171.12 233.72 L171.32 233.52 L171.52 233.31 L171.73 233.11 L171.93 232.90 L172.14 232.70 L172.34 232.49 L172.55 232.29 L172.75 232.08 L172.96 231.88 L173.16 231.67 L173.37 231.47 L173.57 231.27 L173.78 231.06 L173.98 230.86 L174.19 230.65 L174.39 230.45 L174.60 230.24 L174.80 230.04 L175.01 229.83 L175.21 229.63 L175.42 229.42 L175.62 229.22 L175.83 229.01 L176.03 228.81 L176.24 228.60 L176.44 228.40 L176.64 228.19 L176.85 227.99 L177.05 227.78 L177.26 227.58 L177.46 227.37 L177.67 227.17 L177.87 226.96 L178.08 226.76 L178.28 226.55 L178.49 226.35 L178.69 226.15 L178.90 225.94 L179.10 225.74 L179.31 225.53 L179.51 225.33 L179.72 225.12 L179.92 224.92 L180.13 224.71 L180.33 224.51 L180.54 224.30 L180.74 224.10 L180.95 223.89 L181.15 223.69 L181.36 223.48 L181.56 223.28 L181.76 223.07 L181.97 222.87 L182.17 222.66 L182.38 222.46 L182.58 222.25 L182.79 222.05 L182.99 221.84 L183.20 221.64 L183.40 221.43 L183.61 221.23 L183.81 221.03 L184.02 220.82 L184.22 220.62 L184.43 220.41 L184.63 220.21 L184.84 220.00 L185.04 219.80 L185.25 219.59 L185.45 219.39 L185.66 219.18 L185.86 218.98 L186.07 218.77 L186.27 218.57 L186.48 218.36 L186.68 218.16 L186.88 217.95 L187.09 217.75 L187.29 217.54 L187.50 217.34 L187.70 217.13 L187.91 216.93 L188.11 216.72 L188.32 216.52 L188.52 216.31 L188.73 216.11 L188.93 215.91 L189.14 215.70 L189.34 215.50 L189.55 215.29 L189.75 215.09 L189.96 214.88 L190.16 214.68 L190.37 214.47 L190.57 214.27 L190.78 214.06 L190.98 213.86 L191.19 213.65 L191.39 213.45 L191.60 213.24 L191.80 213.04 L192.00 212.83 L192.21 212.63 L192.41 212.42 L192.62 212.22 L192.82 212.01 L193.03 211.81 L193.23 211.60 L193.44 211.40 L193.64 211.19 L193.85 210.99 L194.05 210.79 L194.26 210.58 L194.46 210.38 L194.67 210.17 L194.87 209.97 L195.08 209.76 L195.28 209.56 L195.49 209.35 L195.69 209.15 L195.90 208.94 L196.10 208.74 L196.31 208.53 L196.51 208.33 L196.72 208.12 L196.92 207.92 L197.12 207.71 L197.33 207.51 L197.53 207.30 L197.74 207.10 L197.94 206.89 L198.15 206.69 L198.35 206.48 L198.56 206.28 L198.76 206.07 L198.97 205.87 L199.17 205.67 L199.38 205.46 L199.58 205.26 L199.79 205.05 L199.99 204.85 L200.20 204.64 L200.40 204.44 L200.61 204.23 L200.81 204.03 L201.02 203.82 L201.22 203.62 L201.43 203.41 L201.63 203.21 L201.84 203.00 L202.04 202.80 L202.24 202.59 L202.45 202.39 L202.65 202.18 L202.86 201.98 L203.06 201.77 L203.27 201.57 L203.47 201.36 L203.68 201.16 L203.88 200.95 L204.09 200.75 L204.29 200.55 L204.50 200.34 L204.70 200.14 L204.91 199.93 L205.11 199.73 L205.32 199.52 L205.52 199.32 L205.73 199.11 L205.93 198.91 L206.14 198.70 L206.34 198.50 L206.55 198.29 L206.75 198.09 L206.96 197.88 L207.16 197.68 L207.36 197.47 L207.57 197.27 L207.77 197.06 L207.98 196.86 L208.18 196.65 L208.39 196.45 L208.59 196.24 L208.80 196.04 L209.00 195.83 L209.21 195.63 L209.41 195.43 L209.62 195.22 L209.82 195.02 L210.03 194.81 L210.23 194.61 L210.44 194.40 L210.64 194.20 L210.85 193.99 L211.05 193.79 L211.26 193.58 L211.46 193.38 L211.67 193.17 L211.87 192.97 L212.08 192.76 L212.28 192.56 L212.48 192.35 L212.69 192.15 L212.89 191.94 L213.10 191.74 L213.30 191.53 L213.51 191.33 L213.71 191.12 L213.92 190.92 L214.12 190.71 L214.33 190.51 L214.53 190.31 L214.74 190.10 L214.94 189.90 L215.15 189.69 L215.35 189.49 L215.56 189.28 L215.76 189.08 L215.97 188.87 L216.17 188.67 L216.38 188.46 L216.58 188.26 L216.79 188.05 L216.99 187.85 L217.20 187.64 L217.40 187.44 L217.60 187.23 L217.81 187.03 L218.01 186.82 L218.22 186.62 L218.42 186.41 L218.63 186.21 L218.83 186.00 L219.04 185.80 L219.24 185.59 L219.45 185.39 L219.65 185.19 L219.86 184.98 L220.06 184.78 L220.27 184.57 L220.47 184.37 L220.68 184.16 L220.88 183.96 L221.09 183.75 L221.29 183.55 L221.50 183.34 L221.70 183.14 L221.91 182.93 L222.11 182.73 L222.32 182.52 L222.52 182.32 L222.72 182.11 L222.93 181.91 L223.13 181.70 L223.34 181.50 L223.54 181.29 L223.75 181.09 L223.95 180.88 L224.16 180.68 L224.36 180.47 L224.57 180.27 L224.77 180.07 L224.98 179.86 L225.18 179.66 L225.39 179.45 L225.59 179.25 L225.80 179.04 L226.00 178.84 L226.21 178.63 L226.41 178.43 L226.62 178.22 L226.82 178.02 L227.03 177.81 L227.23 177.61 L227.44 177.40 L227.64 177.20 L227.84 176.99 L228.05 176.79 L228.25 176.58 L228.46 176.38 L228.66 176.17 L228.87 175.97 L229.07 175.76 L229.28 175.56 L229.48 175.35 L229.69 175.15 L229.89 174.95 L230.10 174.74 L230.30 174.54 L230.51 174.33 L230.71 174.13 L230.92 173.92 L231.12 173.72 L231.33 173.51 L231.53 173.31 L231.74 173.10 L231.94 172.90 L232.15 172.69 L232.35 172.49 L232.56 172.28 L232.76 172.08 L232.96 171.87 L233.17 171.67 L233.37 171.46 L233.58 171.26 L233.78 171.05 L233.99 170.85 L234.19 170.64 L234.40 170.44 L234.60 170.23 L234.81 170.03 L235.01 169.83 L235.22 169.62 L235.42 169.42 L235.63 169.21 L235.83 169.01 L236.04 168.80 L236.24 168.60 L236.45 168.39 L236.65 168.19 L236.86 167.98 L237.06 167.78 L237.27 167.57 L237.47 167.37 L237.68 167.16 L237.88 166.96 L238.08 166.75 L238.29 166.55 L238.49 166.34 L238.70 166.14 L238.90 165.93 L239.11 165.73 L239.31 165.52 L239.52 165.32 L239.72 165.11 L239.93 164.91 L240.13 164.71 L240.34 164.50 L240.54 164.30 L240.75 164.09 L240.95 163.89 L241.16 163.68 L241.36 163.48 L241.57 163.27 L241.77 163.07 L241.98 162.86 L242.18 162.66 L242.39 162.45 L242.59 162.25 L242.80 162.04 L243.00 161.84 L243.20 161.63 L243.41 161.43 L243.61 161.22 L243.82 161.02 L244.02 160.81 L244.23 160.61 L244.43 160.40 L244.64 160.20 L244.84 159.99 L245.05 159.79 L245.25 159.59 L245.46 159.38 L245.66 159.18 L245.87 158.97 L246.07 158.77 L246.28 158.56 L246.48 158.36 L246.69 158.15 L246.89 157.95 L247.10 157.74 L247.30 157.54 L247.51 157.33 L247.71 157.13 L247.92 156.92 L248.12 156.72 L248.32 156.51 L248.53 156.31 L248.73 156.10 L248.94 155.90 L249.14 155.69 L249.35 155.49 L249.55 155.28 L249.76 155.08 L249.96 154.87 L250.17 154.67 L250.37 154.47 L250.58 154.26 L250.78 154.06 L250.99 153.85 L251.19 153.65 L251.40 153.44 L251.60 153.24 L251.81 153.03 L252.01 152.83 L252.22 152.62 L252.42 152.42 L252.63 152.21 L252.83 152.01 L253.04 151.80 L253.24 151.60 L253.44 151.39 L253.65 151.19 L253.85 150.98 L254.06 150.78 L254.26 150.57 L254.47 150.37 L254.67 150.16 L254.88 149.96 L255.08 149.75 L255.29 149.55 L255.49 149.35 L255.70 149.14 L255.90 148.94 L256.11 148.73 L256.31 148.53 L256.52 148.32 L256.72 148.12 L256.93 147.91 L257.13 147.71 L257.34 147.50 L257.54 147.30 L257.75 147.09 L257.95 146.89 L258.16 146.68 L258.36 146.48 L258.56 146.27 L258.77 146.07 L258.97 145.86 L259.18 145.66 L259.38 145.45 L259.59 145.25 L259.79 145.04 L260.00 144.84 L260.20 144.63 L260.41 144.43 L260.61 144.23 L260.82 144.02 L261.02 143.82 L261.23 143.61 L261.43 143.41 L261.64 143.20 L261.84 143.00 L262.05 142.79 L262.25 142.59 L262.46 142.38 L262.66 142.18 L262.87 141.97 L263.07 141.77 L263.28 141.56 L263.48 141.36 L263.68 141.15 L263.89 140.95 L264.09 140.74 L264.30 140.54 L264.50 140.33 L264.71 140.13 L264.91 139.92 L265.12 139.72 L265.32 139.51 L265.53 139.31 L265.73 139.11 L265.94 138.90 L266.14 138.70 L266.35 138.49 L266.55 138.29 L266.76 138.08 L266.96 137.88 L267.17 137.67 L267.37 137.47 L267.58 137.26 L267.78 137.06 L267.99 136.85 L268.19 136.65 L268.40 136.44 L268.60 136.24 L268.80 136.03 L269.01 135.83 L269.21 135.62 L269.42 135.42 L269.62 135.21 L269.83 135.01 L270.03 134.80 L270.24 134.60 L270.44 134.39 L270.65 134.19 L270.85 133.99 L271.06 133.78 L271.26 133.58 L271.47 133.37 L271.67 133.17 L271.88 132.96 L272.08 132.76 L272.29 132.55 L272.49 132.35 L272.70 132.14 L272.90 131.94 L273.11 131.73 L273.31 131.53 L273.52 131.32 L273.72 131.12 L273.92 130.91 L274.13 130.71 L274.33 130.50 L274.54 130.30 L274.74 130.09 L274.95 129.89 L275.15 129.68 L275.36 129.48 L275.56 129.27 L275.77 129.07 L275.97 128.87 L276.18 128.66 L276.38 128.46 L276.59 128.25 L276.79 128.05 L277.00 127.84 L277.20 127.64 L277.41 127.43 L277.61 127.23 L277.82 127.02 L278.02 126.82 L278.23 126.61 L278.43 126.41 L278.64 126.20 L278.84 126.00 L279.04 125.79 L279.25 125.59 L279.45 125.38 L279.66 125.18 L279.86 124.97 L280.07 124.77 L280.27 124.56 L280.48 124.36 L280.68 124.15 L280.89 123.95 L281.09 123.75 L281.30 123.54 L281.50 123.34 L281.71 123.13 L281.91 122.93 L282.12 122.72 L282.32 122.52 L282.53 122.31 L282.73 122.11 L282.94 121.90 L283.14 121.70 L283.35 121.49 L283.55 121.29 L283.76 121.08 L283.96 120.88 L284.16 120.67 L284.37 120.47 L284.57 120.26 L284.78 120.06 L284.98 119.85 L285.19 119.65 L285.39 119.44 L285.60 119.24 L285.80 119.03 L286.01 118.83 L286.21 118.63 L286.42 118.42 L286.62 118.22 L286.83 118.01 L287.03 117.81 L287.24 117.60 L287.44 117.40 L287.65 117.19 L287.85 116.99 L288.06 116.78 L288.26 116.58 L288.47 116.37 L288.67 116.17 L288.88 115.96 L289.08 115.76 L289.28 115.55 L289.49 115.35 L289.69 115.14 L289.90 114.94 L290.10 114.73 L290.31 114.53 L290.51 114.32 L290.72 114.12 L290.92 113.91 L291.13 113.71 L291.33 113.51 L291.54 113.30 L291.74 113.10 L291.95 112.89 L292.15 112.69 L292.36 112.48 L292.56 112.28 L292.77 112.07 L292.97 111.87 L293.18 111.66 L293.38 111.46 L293.59 111.25 L293.79 111.05 L294.00 110.84 L294.20 110.64 L294.40 110.43 L294.61 110.23 L294.81 110.02 L295.02 109.82 L295.22 109.61 L295.43 109.41 L295.63 109.20 L295.84 109.00 L296.04 108.79 L296.25 108.59 L296.45 108.39 L296.66 108.18 L296.86 107.98 L297.07 107.77 L297.27 107.57 L297.48 107.36 L297.68 107.16 L297.89 106.95 L298.09 106.75 L298.30 106.54 L298.50 106.34 L298.71 106.13 L298.91 105.93 L299.12 105.72 L299.32 105.52 L299.52 105.31 L299.73 105.11 L299.93 104.90 L300.14 104.70 L300.34 104.49 L300.55 104.29 L300.75 104.08 L300.96 103.88 L301.16 103.67 L301.37 103.47 L301.57 103.27 L301.78 103.06 L301.98 102.86 L302.19 102.65 L302.39 102.45 L302.60 102.24 L302.80 102.04 L303.01 101.83 L303.21 101.63 L303.42 101.42 L303.62 101.22 L303.83 101.01 L304.03 100.81 L304.24 100.60 L304.44 100.40 L304.64 100.19 L304.85 99.99 L305.05 99.78 L305.26 99.58 L305.46 99.37 L305.67 99.17 L305.87 98.96 L306.08 98.76 L306.28 98.55 L306.49 98.35 L306.69 98.15 L306.90 97.94 L307.10 97.74 L307.31 97.53 L307.51 97.33 L307.72 97.12 L307.92 96.92 L308.13 96.71 L308.33 96.51 L308.54 96.30 L308.74 96.10 L308.95 95.89 L309.15 95.69 L309.36 95.48 L309.56 95.28 L309.76 95.07 L309.97 94.87 L310.17 94.66 L310.38 94.46 L310.58 94.25 L310.79 94.05 L310.99 93.84 L311.20 93.64 L311.40 93.43 L311.61 93.23 L311.81 93.03 L312.02 92.82 L312.22 92.62 L312.43 92.41 L312.63 92.21 L312.84 92.00 L313.04 91.80 L313.25 91.59 L313.45 91.39 L313.66 91.18 L313.86 90.98 L314.07 90.77 L314.27 90.57 L314.48 90.36 L314.68 90.16 L314.88 89.95 L315.09 89.75 L315.29 89.54 L315.50 89.34 L315.70 89.13 L315.91 88.93 L316.11 88.72 L316.32 88.52 L316.52 88.31 L316.73 88.11 L316.93 87.91 L317.14 87.70 L317.34 87.50 L317.55 87.29 L317.75 87.09 L317.96 86.88 L318.16 86.68 L318.37 86.47 L318.57 86.27 L318.78 86.06 L318.98 85.86 L319.19 85.65 L319.39 85.45 L319.60 85.24 L319.80 85.04 L320.00 84.83 L320.21 84.63 L320.41 84.42 L320.62 84.22 L320.82 84.01 L321.03 83.81 L321.23 83.60 L321.44 83.40 L321.64 83.19 L321.85 82.99 L322.05 82.79 L322.26 82.58 L322.46 82.38 L322.67 82.17 L322.87 81.97 L323.08 81.76 L323.28 81.56 L323.49 81.35 L323.69 81.15 L323.90 80.94 L324.10 80.74 L324.31 80.53 L324.51 80.33 L324.72 80.12 L324.92 79.92 L325.12 79.71 L325.33 79.51 L325.53 79.30 L325.74 79.10 L325.94 78.89 L326.15 78.69 L326.35 78.48 L326.56 78.28 L326.76 78.07 L326.97 77.87 L327.17 77.67 L327.38 77.46 L327.58 77.26 L327.79 77.05 L327.99 76.85 L328.20 76.64 L328.40 76.44 L328.61 76.23 L328.81 76.03 L329.02 75.82 L329.22 75.62 L329.43 75.41 L329.63 75.21 L329.84 75.00 L330.04 74.80 L330.24 74.59 L330.45 74.39 L330.65 74.18 L330.86 73.98 L331.06 73.77 L331.27 73.57 L331.47 73.36 L331.68 73.16 L331.88 72.95 L332.09 72.75 L332.29 72.55 L332.50 72.34 L332.70 72.14 L332.91 71.93 L333.11 71.73 L333.32 71.52 L333.52 71.32 L333.73 71.11 L333.93 70.91 L334.14 70.70 L334.34 70.50 L334.55 70.29 L334.75 70.09 L334.96 69.88 L335.16 69.68 L335.36 69.47 L335.57 69.27 L335.77 69.06 L335.98 68.86 L336.18 68.65 L336.39 68.45 L336.59 68.24 L336.80 68.04 L337.00 67.83 L337.21 67.63 L337.41 67.43 L337.62 67.22 L337.82 67.02 L338.03 66.81 L338.23 66.61 L338.44 66.40 L338.64 66.20 L338.85 65.99 L339.05 65.79 L339.26 65.58 L339.46 65.38 L339.67 65.17 L339.87 64.97 L340.08 64.76 L340.28 64.56 L340.48 64.35 L340.69 64.15 L340.89 63.94 L341.10 63.74 L341.30 63.53 L341.51 63.33 L341.71 63.12 L341.92 62.92 L342.12 62.71 L342.33 62.51 L342.53 62.31 L342.74 62.10 L342.94 61.90 L343.15 61.69 L343.35 61.49 L343.56 61.28 L343.76 61.08 L343.97 60.87 L344.17 60.67 L344.38 60.46 L344.58 60.26 L344.79 60.05 L344.99 59.85 L345.20 59.64 L345.40 59.44 L345.60 59.23 L345.81 59.03 L346.01 58.82 L346.22 58.62 L346.42 58.41 L346.63 58.21 L346.83 58.00 L347.04 57.80 L347.24 57.59 L347.45 57.39 L347.65 57.19 L347.86 56.98 L348.06 56.78 L348.27 56.57 L348.47 56.37 L348.68 56.16 L348.88 55.96 L349.09 55.75 L349.29 55.55 L349.50 55.34 L349.70 55.14 L349.91 54.93 L350.11 54.73 L350.32 54.52 L350.52 54.32 L350.72 54.11 L350.93 53.91 L351.13 53.70 L351.34 53.50 L351.54 53.29 L351.75 53.09 L351.95 52.88 L352.16 52.68 L352.36 52.47 L352.57 52.27 L352.77 52.07 L352.98 51.86 L353.18 51.66 L353.39 51.45 L353.59 51.25 L353.80 51.04 L354.00 50.84 L354.21 50.63 L354.41 50.43 L354.62 50.22 L354.82 50.02 L355.03 49.81 L355.23 49.61 L355.44 49.40 L355.64 49.20 L355.84 48.99 L356.05 48.79 L356.25 48.58 L356.46 48.38 L356.66 48.17 L356.87 47.97 L357.07 47.76 L357.28 47.56 L357.48 47.35 L357.69 47.15 L357.89 46.95 L358.10 46.74 L358.30 46.54 L358.51 46.33 L358.71 46.13 L358.92 45.92 L359.12 45.72 L359.33 45.51 L359.53 45.31 L359.74 45.10 L359.94 44.90 L360.15 44.69 L360.35 44.49 L360.56 44.28 L360.76 44.08 L360.96 43.87 L361.17 43.67 L361.37 43.46 L361.58 43.26 L361.78 43.05 L361.99 42.85 L362.19 42.64 L362.40 42.44 L362.60 42.23 L362.81 42.03 L363.01 41.83 L363.22 41.62 L363.42 41.42 L363.63 41.21 L363.83 41.01 L364.04 40.80 L364.24 40.60 L364.45 40.39 L364.65 40.19 L364.86 39.98 L365.06 39.78 L365.27 39.57 L365.47 39.37 L365.68 39.16 L365.88 38.96 L366.08 38.75 L366.29 38.55 L366.49 38.34 L366.70 38.14 L366.90 37.93 L367.11 37.73 L367.31 37.52 L367.52 37.32 L367.72 37.11 L367.93 36.91 L368.13 36.71 L368.34 36.50 L368.54 36.30 L368.75 36.09 L368.95 35.89 L369.16 35.68 L369.36 35.48 L369.57 35.27 L369.77 35.07 L369.98 34.86 L370.18 34.66 L370.39 34.45 L370.59 34.25 L370.80 34.04 L371.00 33.84 L371.20 33.63 L371.41 33.43 L371.61 33.22 L371.82 33.02 L372.02 32.81 L372.23 32.61 L372.43 32.40 L372.64 32.20 L372.84 31.99 L373.05 31.79 L373.25 31.59 L373.46 31.38 L373.66 31.18 L373.87 30.97 L374.07 30.77 L374.28 30.56 L374.48 30.36 L374.69 30.15 L374.89 29.95 L375.10 29.74 L375.30 29.54 L375.51 29.33 L375.71 29.13 L375.92 28.92 L376.12 28.72 L376.32 28.51 L376.53 28.31 L376.73 28.10 L376.94 27.90 L377.14 27.69 L377.35 27.49 L377.55 27.28 L377.76 27.08 L377.96 26.87 L378.17 26.67 L378.37 26.47 L378.58 26.26 L378.78 26.06 L378.99 25.85 L379.19 25.65 L379.40 25.44 L379.60 25.24 L379.81 25.03 L380.01 24.83 L380.22 24.62 L380.42 24.42 L380.63 24.21 L380.83 24.01 L381.04 23.80 L381.24 23.60 L381.44 23.39 L381.65 23.19 L381.85 22.98 L382.06 22.78 L382.26 22.57 L382.47 22.37 L382.67 22.16 L382.88 21.96 L383.08 21.75 L383.29 21.55 L383.49 21.35 L383.70 21.14 L383.90 20.94 L384.11 20.73 L384.31 20.53 L384.52 20.32 L384.72 20.12 L384.93 19.91 L385.13 19.71 L385.34 19.50 L385.54 19.30 L385.75 19.09 L385.95 18.89 L386.16 18.68 L386.36 18.48 L386.56 18.27 L386.77 18.07 L386.97 17.86 L387.18 17.66 L387.38 17.45 L387.59 17.25 L387.79 17.04 L388.00 16.84 L388.20 16.63 L388.41 16.43 L388.61 16.23 L388.82 16.02 L389.02 15.82 L389.23 15.61 L389.43 15.41 L389.64 15.20 L389.84 15.00 L390.05 14.79 L390.25 14.59 L390.46 14.38 L390.66 14.18 L390.87 13.97 L391.07 13.77 L391.28 13.56 L391.48 13.36 L391.68 13.15 L391.89 12.95 L392.09 12.74 L392.30 12.54 L392.50 12.33 L392.71 12.13 L392.91 11.92 L393.12 11.72 L393.32 11.51 L393.53 11.31 L393.73 11.11 L393.94 10.90 L394.14 10.70 L394.35 10.49 L394.55 10.29 L394.76 10.08 L394.96 9.88 L395.17 9.67 L395.37 9.47 L395.58 9.26 L395.78 9.06 L395.99 8.85 L396.19 8.65 L396.40 8.44 L396.60 8.24 L396.80 8.03 L397.01 7.83 L397.21 7.62 L397.42 7.42 L397.62 7.21 L397.83 7.01 L398.03 6.80 L398.24 6.60 L398.44 6.39 L398.65 6.19 L398.85 5.99 L399.06 5.78 L399.26 5.58 L399.47 5.37 L399.67 5.17 L399.88 4.96 L400.08 4.76 L400.29 4.55 L400.49 4.35 L400.70 4.14 L400.90 3.94 L401.11 3.73 L401.31 3.53 L401.52 3.32 L401.72 3.12 L401.92 2.91 L402.13 2.71 L402.33 2.50 L402.54 2.30 L402.74 2.09 L402.95 1.89 L403.15 1.68 L403.36 1.48 L403.56 1.27 L403.77 1.07 L403.97 0.87 L404.18 0.66 L404.38 0.46 L404.59 0.25 L404.79 0.05 L405.00 -0.16 " style="fill:none;stroke:#36B516;stroke-width:1;" /></g></svg>