<?xml version="1.0" standalone="no"?><!DOCTYPE svg PUBLIC "-//W3C//DTD SVG 1.1//EN" "http://www.w3.org/Graphics/SVG/1.1/DTD/svg11.dtd"><svg xmlns="http://www.w3.org/2000/svg" viewBox="0 0 650 400" version="1.1"><clipPath id="box"><rect x="0" y="0" width="650" height="400" style="fill:none;stroke:none;" /></clipPath><g clip-path="url(#box)"><rect x="0.00" y="0.00" width="650.00" height="400.00" style="fill:#FFFFFF;stroke:none;" /><path d="M35.64 0.00 L35.64 400.00 " style="fill:none;stroke:#000000;stroke-width:1;" /><path d="M0.00 354.79 L650.00 354.79 " style="fill:none;stroke:#000000;stroke-width:1;" /><text x="43.762270367258004" y="357.28693493896606" text-anchor="start" style="font:10px Droid Sans,Trebuchet MS,Arial,Helvetica,sans-serif;stroke:none;fill:#000000">0</text><text x="43.762270367258004" y="280.99298962646594" text-anchor="start" style="font:10px Droid Sans,Trebuchet MS,Arial,Helvetica,sans-serif;stroke:none;fill:#000000">0.5</text><text x="43.762270367258004" y="204.69904431396577" text-anchor="start" style="font:10px Droid Sans,Trebuchet MS,Arial,Helvetica,sans-serif;stroke:none;fill:#000000">1</text><text x="43.762270367258004" y="128.4050990014656" text-anchor="start" style="font:10px Droid Sans,Trebuchet MS,Arial,Helvetica,sans-serif;stroke:none;fill:#000000">1.5</text><text x="43.762270367258004" y="52.11115368896544" text-anchor="start" style="font:10px Droid Sans,Trebuchet MS,Arial,Helvetica,sans-serif;stroke:none;fill:#000000">2</text><text x="35.637270367258004" y="370.91193493896606" text-anchor="middle" style="font:10px Droid Sans,Trebuchet MS,Arial,Helvetica,sans-serif;stroke:none;fill:#000000">0</text><text x="111.93121567975818" y="370.91193493896606" text-anchor="middle" style="font:10px Droid Sans,Trebuchet MS,Arial,Helvetica,sans-serif;stroke:none;fill:#000000">0.5</text><text x="188.2251609922583" y="370.91193493896606" text-anchor="middle" style="font:10px Droid Sans,Trebuchet MS,Arial,Helvetica,sans-serif;stroke:none;fill:#000000">1</text><text x="264.5191063047585" y="370.91193493896606" text-anchor="middle" style="font:10px Droid Sans,Trebuchet MS,Arial,Helvetica,sans-serif;stroke:none;fill:#000000">1.5</text><text x="340.8130516172587" y="370.91193493896606" text-anchor="middle" style="font:10px Droid Sans,Trebuchet MS,Arial,Helvetica,sans-serif;stroke:none;fill:#000000">2</text><text x="417.10699692975885" y="370.91193493896606" text-anchor="middle" style="font:10px Droid Sans,Trebuchet MS,Arial,Helvetica,sans-serif;stroke:none;fill:#000000">2.5</text><text x="493.400942242259" y="370.91193493896606" text-anchor="middle" style="font:10px Droid Sans,Trebuchet MS,Arial,Helvetica,sans-serif;stroke:none;fill:#000000">3</text><text x="569.6948875547591" y="370.91193493896606" text-anchor="middle" style="font:10px Droid Sans,Trebuchet MS,Arial,Helvetica,sans-serif;stroke:none;fill:#000000">3.5</text><path d="M35.64 354.79 L35.64 354.79 L37.16 354.77 L38.69 354.73 L40.21 354.65 L41.74 354.54 L43.27 354.41 L44.79 354.24 L46.32 354.04 L47.84 353.81 L49.37 353.55 L50.90 353.26 L52.42 352.94 L53.95 352.59 L55.47 352.21 L57.00 351.80 L58.53 351.35 L60.05 350.88 L61.58 350.38 L63.10 349.84 L64.63 349.28 L66.15 348.68 L67.68 348.06 L69.21 347.40 L70.73 346.72 L72.26 346.00 L73.78 345.25 L75.31 344.47 L76.84 343.66 L78.36 342.82 L79.89 341.95 L81.41 341.05 L82.94 340.12 L84.47 339.16 L85.99 338.17 L87.52 337.15 L89.04 336.09 L90.57 335.01 L92.09 333.90 L93.62 332.75 L95.15 331.58 L96.67 330.37 L98.20 329.14 L99.72 327.87 L101.25 326.57 L102.78 325.25 L104.30 323.89 L105.83 322.50 L107.35 321.08 L108.88 319.63 L110.41 318.15 L111.93 316.64 L113.46 315.10 L114.98 313.53 L116.51 311.92 L118.03 310.29 L119.56 308.63 L121.09 306.94 L122.61 305.21 L124.14 303.46 L125.66 301.67 L127.19 299.86 L128.72 298.01 L130.24 296.13 L131.77 294.22 L133.29 292.29 L134.82 290.32 L136.35 288.32 L137.87 286.29 L139.40 284.23 L140.92 282.14 L142.45 280.02 L143.97 277.87 L145.50 275.69 L147.03 273.47 L148.55 271.23 L150.08 268.96 L151.60 266.65 L153.13 264.32 L154.66 261.95 L156.18 259.56 L157.71 257.13 L159.23 254.67 L160.76 252.19 L162.29 249.67 L163.81 247.12 L165.34 244.54 L166.86 241.93 L168.39 239.29 L169.91 236.62 L171.44 233.92 L172.97 231.19 L174.49 228.43 L176.02 225.64 L177.54 222.81 L179.07 219.96 L180.60 217.08 L182.12 214.16 L183.65 211.22 L185.17 208.24 L186.70 205.24 L188.23 202.20 L189.75 199.13 L191.28 196.03 L192.80 192.91 L194.33 189.75 L195.85 186.56 L197.38 183.34 L198.91 180.09 L200.43 176.81 L201.96 173.50 L203.48 170.16 L205.01 166.78 L206.54 163.38 L208.06 159.95 L209.59 156.48 L211.11 152.99 L212.64 149.46 L214.17 145.91 L215.69 142.32 L217.22 138.71 L218.74 135.06 L220.27 131.38 L221.79 127.68 L223.32 123.94 L224.85 120.17 L226.37 116.37 L227.90 112.54 L229.42 108.68 L230.95 104.79 L232.48 100.87 L234.00 96.91 L235.53 92.93 L237.05 88.92 L238.58 84.87 L240.11 80.80 L241.63 76.70 L243.16 72.56 L244.68 68.39 L246.21 64.20 L247.73 59.97 L249.26 55.71 L250.79 51.43 L252.31 47.11 L253.84 42.76 L255.36 38.38 L256.89 33.97 L258.42 29.53 L259.94 25.06 L261.47 20.56 L262.99 16.03 L264.52 11.46 L266.04 6.87 L267.57 2.25 L269.10 -2.41 " style="fill:none;stroke:#ff0000;stroke-width:1;" /><path d="M35.64 354.79 L35.64 354.79 L37.16 351.74 L38.69 348.68 L40.21 345.63 L41.74 342.58 L43.27 339.53 L44.79 336.48 L46.32 333.42 L47.84 330.37 L49.37 327.32 L50.90 324.27 L52.42 321.22 L53.95 318.17 L55.47 315.11 L57.00 312.06 L58.53 309.01 L60.05 305.96 L61.58 302.91 L63.10 299.86 L64.63 296.80 L66.15 293.75 L67.68 290.70 L69.21 287.65 L70.73 284.60 L72.26 281.54 L73.78 278.49 L75.31 275.44 L76.84 272.39 L78.36 269.34 L79.89 266.29 L81.41 263.23 L82.94 260.18 L84.47 257.13 L85.99 254.08 L87.52 251.03 L89.04 247.98 L90.57 244.92 L92.09 241.87 L93.62 238.82 L95.15 235.77 L96.67 232.72 L98.20 229.66 L99.72 226.61 L101.25 223.56 L102.78 220.51 L104.30 217.46 L105.83 214.41 L107.35 211.35 L108.88 208.30 L110.41 205.25 L111.93 202.20 L113.46 199.15 L114.98 196.10 L116.51 193.04 L118.03 189.99 L119.56 186.94 L121.09 183.89 L122.61 180.84 L124.14 177.78 L125.66 174.73 L127.19 171.68 L128.72 168.63 L130.24 165.58 L131.77 162.53 L133.29 159.47 L134.82 156.42 L136.35 153.37 L137.87 150.32 L139.40 147.27 L140.92 144.22 L142.45 141.16 L143.97 138.11 L145.50 135.06 L147.03 132.01 L148.55 128.96 L150.08 125.91 L151.60 122.85 L153.13 119.80 L154.66 116.75 L156.18 113.70 L157.71 110.65 L159.23 107.59 L160.76 104.54 L162.29 101.49 L163.81 98.44 L165.34 95.39 L166.86 92.34 L168.39 89.28 L169.91 86.23 L171.44 83.18 L172.97 80.13 L174.49 77.08 L176.02 74.03 L177.54 70.97 L179.07 67.92 L180.60 64.87 L182.12 61.82 L183.65 58.77 L185.17 55.71 L186.70 52.66 L188.23 49.61 L189.75 46.56 L191.28 43.51 L192.80 40.46 L194.33 37.40 L195.85 34.35 L197.38 31.30 L198.91 28.25 L200.43 25.20 L201.96 22.15 L203.48 19.09 L205.01 16.04 L206.54 12.99 L208.06 9.94 L209.59 6.89 L211.11 3.83 L212.64 0.78 L214.17 -2.27 " style="fill:none;stroke:#0015FC;stroke-width:1;" /><path d="M35.64 354.79 L35.64 354.79 L37.16 353.26 L38.69 351.74 L40.21 350.21 L41.74 348.68 L43.27 347.16 L44.79 345.63 L46.32 344.11 L47.84 342.58 L49.37 341.05 L50.90 339.53 L52.42 338.00 L53.95 336.48 L55.47 334.95 L57.00 333.42 L58.53 331.90 L60.05 330.37 L61.58 328.85 L63.10 327.32 L64.63 325.80 L66.15 324.27 L67.68 322.74 L69.21 321.22 L70.73 319.69 L72.26 318.17 L73.78 316.64 L75.31 315.11 L76.84 313.59 L78.36 312.06 L79.89 310.54 L81.41 309.01 L82.94 307.48 L84.47 305.96 L85.99 304.43 L87.52 302.91 L89.04 301.38 L90.57 299.86 L92.09 298.33 L93.62 296.80 L95.15 295.28 L96.67 293.75 L98.20 292.23 L99.72 290.70 L101.25 289.17 L102.78 287.65 L104.30 286.12 L105.83 284.60 L107.35 283.07 L108.88 281.54 L110.41 280.02 L111.93 278.49 L113.46 276.97 L114.98 275.44 L116.51 273.92 L118.03 272.39 L119.56 270.86 L121.09 269.34 L122.61 267.81 L124.14 266.29 L125.66 264.76 L127.19 263.23 L128.72 261.71 L130.24 260.18 L131.77 258.66 L133.29 257.13 L134.82 255.60 L136.35 254.08 L137.87 252.55 L139.40 251.03 L140.92 249.50 L142.45 247.98 L143.97 246.45 L145.50 244.92 L147.03 243.40 L148.55 241.87 L150.08 240.35 L151.60 238.82 L153.13 237.29 L154.66 235.77 L156.18 234.24 L157.71 232.72 L159.23 231.19 L160.76 229.66 L162.29 228.14 L163.81 226.61 L165.34 225.09 L166.86 223.56 L168.39 222.04 L169.91 220.51 L171.44 218.98 L172.97 217.46 L174.49 215.93 L176.02 214.41 L177.54 212.88 L179.07 211.35 L180.60 209.83 L182.12 208.30 L183.65 206.78 L185.17 205.25 L186.70 203.72 L188.23 202.20 L189.75 200.67 L191.28 199.15 L192.80 197.62 L194.33 196.10 L195.85 194.57 L197.38 193.04 L198.91 191.52 L200.43 189.99 L201.96 188.47 L203.48 186.94 L205.01 185.41 L206.54 183.89 L208.06 182.36 L209.59 180.84 L211.11 179.31 L212.64 177.78 L214.17 176.26 L215.69 174.73 L217.22 173.21 L218.74 171.68 L220.27 170.16 L221.79 168.63 L223.32 167.10 L224.85 165.58 L226.37 164.05 L227.90 162.53 L229.42 161.00 L230.95 159.47 L232.48 157.95 L234.00 156.42 L235.53 154.90 L237.05 153.37 L238.58 151.85 L240.11 150.32 L241.63 148.79 L243.16 147.27 L244.68 145.74 L246.21 144.22 L247.73 142.69 L249.26 141.16 L250.79 139.64 L252.31 138.11 L253.84 136.59 L255.36 135.06 L256.89 133.53 L258.42 132.01 L259.94 130.48 L261.47 128.96 L262.99 127.43 L264.52 125.91 L266.04 124.38 L267.57 122.85 L269.10 121.33 L270.62 119.80 L272.15 118.28 L273.67 116.75 L275.20 115.22 L276.73 113.70 L278.25 112.17 L279.78 110.65 L281.30 109.12 L282.83 107.59 L284.36 106.07 L285.88 104.54 L287.41 103.02 L288.93 101.49 L290.46 99.97 L291.98 98.44 L293.51 96.91 L295.04 95.39 L296.56 93.86 L298.09 92.34 L299.61 90.81 L301.14 89.28 L302.67 87.76 L304.19 86.23 L305.72 84.71 L307.24 83.18 L308.77 81.65 L310.30 80.13 L311.82 78.60 L313.35 77.08 L314.87 75.55 L316.40 74.03 L317.92 72.50 L319.45 70.97 L320.98 69.45 L322.50 67.92 L324.03 66.40 L325.55 64.87 L327.08 63.34 L328.61 61.82 L330.13 60.29 L331.66 58.77 L333.18 57.24 L334.71 55.71 L336.24 54.19 L337.76 52.66 L339.29 51.14 L340.81 49.61 L342.34 48.09 L343.86 46.56 L345.39 45.03 L346.92 43.51 L348.44 41.98 L349.97 40.46 L351.49 38.93 L353.02 37.40 L354.55 35.88 L356.07 34.35 L357.60 32.83 L359.12 31.30 L360.65 29.77 L362.18 28.25 L363.70 26.72 L365.23 25.20 L366.75 23.67 L368.28 22.15 L369.80 20.62 L371.33 19.09 L372.86 17.57 L374.38 16.04 L375.91 14.52 L377.43 12.99 L378.96 11.46 L380.49 9.94 L382.01 8.41 L383.54 6.89 L385.06 5.36 L386.59 3.83 L388.12 2.31 L389.64 0.78 L391.17 -0.74 " style="fill:none;stroke:#36B516;stroke-width:1;" /></g></svg>