<?xml version="1.0" standalone="no"?><!DOCTYPE svg PUBLIC "-//W3C//DTD SVG 1.1//EN" "http://www.w3.org/Graphics/SVG/1.1/DTD/svg11.dtd"><svg xmlns="http://www.w3.org/2000/svg" viewBox="0 0 650 400" version="1.1"><clipPath id="box"><rect x="0" y="0" width="650" height="400" style="fill:none;stroke:none;" /></clipPath><g clip-path="url(#box)"><rect x="0.00" y="0.00" width="650.00" height="400.00" style="fill:#FFFFFF;stroke:none;" /><path d="M36.81 0.00 L36.81 400.00 " style="fill:none;stroke:#000000;stroke-width:1;" /><path d="M0.00 357.33 L650.00 357.33 " style="fill:none;stroke:#000000;stroke-width:1;" /><text x="44.93616710600703" y="359.8261254396368" text-anchor="start" style="font:10px Droid Sans,Trebuchet MS,Arial,Helvetica,sans-serif;stroke:none;fill:#000000">0</text><text x="44.93616710600703" y="288.8033981669095" text-anchor="start" style="font:10px Droid Sans,Trebuchet MS,Arial,Helvetica,sans-serif;stroke:none;fill:#000000">1</text><text x="44.93616710600703" y="217.78067089418218" text-anchor="start" style="font:10px Droid Sans,Trebuchet MS,Arial,Helvetica,sans-serif;stroke:none;fill:#000000">2</text><text x="44.93616710600703" y="146.75794362145484" text-anchor="start" style="font:10px Droid Sans,Trebuchet MS,Arial,Helvetica,sans-serif;stroke:none;fill:#000000">3</text><text x="44.93616710600703" y="75.73521634872748" text-anchor="start" style="font:10px Droid Sans,Trebuchet MS,Arial,Helvetica,sans-serif;stroke:none;fill:#000000">4</text><text x="36.81116710600703" y="373.4511254396368" text-anchor="middle" style="font:10px Droid Sans,Trebuchet MS,Arial,Helvetica,sans-serif;stroke:none;fill:#000000">0</text><text x="94.51713301509805" y="373.4511254396368" text-anchor="middle" style="font:10px Droid Sans,Trebuchet MS,Arial,Helvetica,sans-serif;stroke:none;fill:#000000">0.5</text><text x="152.22309892418906" y="373.4511254396368" text-anchor="middle" style="font:10px Droid Sans,Trebuchet MS,Arial,Helvetica,sans-serif;stroke:none;fill:#000000">1</text><text x="209.9290648332801" y="373.4511254396368" text-anchor="middle" style="font:10px Droid Sans,Trebuchet MS,Arial,Helvetica,sans-serif;stroke:none;fill:#000000">1.5</text><text x="267.63503074237116" y="373.4511254396368" text-anchor="middle" style="font:10px Droid Sans,Trebuchet MS,Arial,Helvetica,sans-serif;stroke:none;fill:#000000">2</text><text x="325.3409966514622" y="373.4511254396368" text-anchor="middle" style="font:10px Droid Sans,Trebuchet MS,Arial,Helvetica,sans-serif;stroke:none;fill:#000000">2.5</text><text x="383.0469625605532" y="373.4511254396368" text-anchor="middle" style="font:10px Droid Sans,Trebuchet MS,Arial,Helvetica,sans-serif;stroke:none;fill:#000000">3</text><text x="440.75292846964425" y="373.4511254396368" text-anchor="middle" style="font:10px Droid Sans,Trebuchet MS,Arial,Helvetica,sans-serif;stroke:none;fill:#000000">3.5</text><text x="498.4588943787353" y="373.4511254396368" text-anchor="middle" style="font:10px Droid Sans,Trebuchet MS,Arial,Helvetica,sans-serif;stroke:none;fill:#000000">4</text><text x="556.1648602878263" y="373.4511254396368" text-anchor="middle" style="font:10px Droid Sans,Trebuchet MS,Arial,Helvetica,sans-serif;stroke:none;fill:#000000">4.5</text><text x="613.8708261969174" y="373.4511254396368" text-anchor="middle" style="font:10px Droid Sans,Trebuchet MS,Arial,Helvetica,sans-serif;stroke:none;fill:#000000">5</text><path d="M-10.00 200.00 L-0.25 380.13 L0.75 379.52 L2.38 378.52 L4.00 377.52 L5.63 376.52 L7.25 375.52 L8.88 374.52 L10.50 373.52 L12.13 372.52 L13.75 371.52 L15.38 370.52 L17.00 369.52 L18.63 368.52 L20.25 367.52 L21.88 366.52 L23.50 365.52 L25.13 364.52 L26.75 363.52 L28.38 362.52 L30.00 361.52 L31.63 360.52 L33.25 359.52 L34.88 358.52 L36.50 357.52 L38.13 356.52 L39.75 355.52 L41.38 354.52 L43.00 353.52 L44.63 352.52 L46.25 351.52 L47.88 350.52 L49.50 349.52 L51.13 348.52 L52.75 347.52 L54.38 346.52 L56.00 345.52 L57.63 344.52 L59.25 343.52 L60.88 342.52 L62.50 341.52 L64.13 340.52 L65.75 339.52 L67.38 338.52 L69.00 337.52 L70.63 336.52 L72.25 335.52 L73.88 334.52 L75.50 333.52 L77.13 332.52 L78.75 331.52 L80.38 330.52 L82.00 329.52 L83.63 328.52 L85.25 327.52 L86.88 326.52 L88.50 325.52 L90.13 324.52 L91.75 323.52 L93.38 322.52 L95.00 321.52 L96.63 320.52 L98.25 319.52 L99.88 318.52 L101.50 317.52 L103.13 316.52 L104.75 315.52 L106.38 314.52 L108.00 313.52 L109.63 312.52 L111.25 311.52 L112.88 310.52 L114.50 309.52 L116.13 308.52 L117.75 307.52 L119.38 306.52 L121.00 305.52 L122.63 304.52 L124.25 303.52 L125.88 302.52 L127.50 301.52 L129.13 300.52 L130.75 299.52 L132.38 298.52 L134.00 297.52 L135.63 296.52 L137.25 295.52 L138.88 294.52 L140.50 293.52 L142.13 292.52 L143.75 291.52 L145.38 290.52 L147.00 289.52 L148.63 288.52 L150.25 287.52 L151.88 286.52 L153.50 285.52 L155.13 284.52 L156.75 283.52 L158.38 282.52 L160.00 281.52 L161.63 280.52 L163.25 279.52 L164.88 278.52 L166.50 277.52 L168.13 276.52 L169.75 275.52 L171.38 274.52 L173.00 273.52 L174.63 272.52 L176.25 271.52 L177.88 270.52 L179.50 269.52 L181.13 268.52 L182.75 267.52 L184.38 266.52 L186.00 265.52 L187.63 264.52 L189.25 263.52 L190.88 262.52 L192.50 261.52 L194.13 260.52 L195.75 259.52 L197.38 258.52 L199.00 257.52 L200.63 256.52 L202.25 255.52 L203.88 254.52 L205.50 253.52 L207.13 252.52 L208.75 251.52 L210.38 250.52 L212.00 249.52 L213.63 248.52 L215.25 247.52 L216.88 246.52 L218.50 245.52 L220.13 244.52 L221.75 243.52 L223.38 242.52 L225.00 241.52 L226.63 240.52 L228.25 239.52 L229.88 238.52 L231.50 237.52 L233.13 236.52 L234.75 235.52 L236.38 234.52 L238.00 233.52 L239.63 232.52 L241.25 231.52 L242.88 230.52 L244.50 229.52 L246.13 228.52 L247.75 227.52 L249.38 226.52 L251.00 225.52 L252.63 224.52 L254.25 223.52 L255.88 222.52 L257.50 221.52 L259.13 220.52 L260.75 219.52 L262.38 218.52 L264.00 217.52 L265.63 216.52 L267.25 215.52 L268.88 214.52 L270.50 213.52 L272.13 212.52 L273.75 211.52 L275.38 210.52 L277.00 209.52 L278.63 208.52 L280.25 207.52 L281.88 206.52 L283.50 205.52 L285.13 204.52 L286.75 203.52 L288.38 202.52 L290.00 201.52 L291.63 200.52 L293.25 199.52 L294.88 198.52 L296.50 197.52 L298.13 196.52 L299.75 195.52 L301.38 194.52 L303.00 193.52 L304.63 192.52 L306.25 191.52 L307.88 190.52 L309.50 189.52 L311.13 188.52 L312.75 187.52 L314.38 186.52 L316.00 185.52 L317.63 184.52 L319.25 183.52 L320.88 182.52 L322.50 181.52 L324.13 180.52 L325.75 179.52 L327.38 178.52 L329.00 177.52 L330.63 176.52 L332.25 175.52 L333.88 174.52 L335.50 173.52 L337.13 172.52 L338.75 171.52 L340.38 170.52 L342.00 169.52 L343.63 168.52 L345.25 167.52 L346.88 166.52 L348.50 165.52 L350.13 164.52 L351.75 163.52 L353.38 162.52 L355.00 161.52 L356.63 160.52 L358.25 159.52 L359.88 158.52 L361.50 157.52 L363.13 156.52 L364.75 155.52 L366.38 154.52 L368.00 153.52 L369.63 152.52 L371.25 151.52 L372.88 150.52 L374.50 149.52 L376.13 148.52 L377.75 147.52 L379.38 146.52 L381.00 145.52 L382.63 144.52 L384.25 143.52 L385.88 142.52 L387.50 141.52 L389.13 140.52 L390.75 139.52 L392.38 138.52 L394.00 137.52 L395.63 136.52 L397.25 135.52 L398.88 134.52 L400.50 133.52 L402.13 132.52 L403.75 131.52 L405.38 130.52 L407.00 129.52 L408.63 128.52 L410.25 127.52 L411.88 126.52 L413.50 125.52 L415.13 124.52 L416.75 123.52 L418.38 122.52 L420.00 121.52 L421.63 120.52 L423.25 119.52 L424.88 118.52 L426.50 117.52 L428.13 116.52 L429.75 115.52 L431.38 114.52 L433.00 113.52 L434.63 112.52 L436.25 111.52 L437.88 110.52 L439.50 109.52 L441.13 108.52 L442.75 107.52 L444.38 106.52 L446.00 105.52 L447.63 104.52 L449.25 103.52 L450.88 102.52 L452.50 101.52 L454.13 100.52 L455.75 99.52 L457.38 98.52 L459.00 97.52 L460.63 96.52 L462.25 95.52 L463.88 94.52 L465.50 93.52 L467.13 92.52 L468.75 91.52 L470.38 90.52 L472.00 89.52 L473.63 88.52 L475.25 87.52 L476.88 86.52 L478.50 85.52 L480.13 84.52 L481.75 83.52 L483.38 82.52 L485.00 81.52 L486.63 80.52 L488.25 79.52 L489.88 78.52 L491.50 77.52 L493.13 76.52 L494.75 75.52 L496.38 74.52 L498.00 73.52 L499.63 72.52 L501.25 71.52 L502.88 70.52 L504.50 69.52 L506.13 68.52 L507.75 67.52 L509.38 66.52 L511.00 65.52 L512.63 64.52 L514.25 63.52 L515.88 62.52 L517.50 61.52 L519.13 60.52 L520.75 59.52 L522.38 58.52 L524.00 57.52 L525.63 56.52 L527.25 55.52 L528.88 54.52 L530.50 53.52 L532.13 52.52 L533.75 51.52 L535.38 50.52 L537.00 49.52 L538.63 48.52 L540.25 47.52 L541.88 46.52 L543.50 45.52 L545.13 44.52 L546.75 43.52 L548.38 42.52 L550.00 41.52 L551.63 40.52 L553.25 39.52 L554.88 38.52 L556.50 37.52 L558.13 36.52 L559.75 35.52 L561.38 34.52 L563.00 33.52 L564.63 32.52 L566.25 31.52 L567.88 30.52 L569.50 29.52 L571.13 28.52 L572.75 27.52 L574.38 26.52 L576.00 25.52 L577.63 24.52 L579.25 23.52 L580.88 22.52 L582.50 21.52 L584.13 20.52 L585.75 19.52 L587.38 18.52 L589.00 17.52 L590.63 16.52 L592.25 15.52 L593.88 14.52 L595.50 13.52 L597.13 12.52 L598.75 11.52 L600.38 10.52 L602.00 9.52 L603.63 8.52 L605.25 7.52 L606.88 6.52 L608.50 5.52 L610.13 4.52 L611.75 3.52 L613.38 2.52 L615.00 1.52 L616.63 0.52 L618.25 -0.48 " style="fill:none;stroke:#FF0000;stroke-width:1;" /><path d="M2.14 400.00 L2.14 400.00 L2.95 399.00 L3.76 398.00 L4.58 397.00 L5.39 396.00 L6.20 395.00 L7.01 394.00 L7.83 393.00 L8.64 392.00 L9.45 391.00 L10.26 390.00 L11.08 389.00 L11.89 388.00 L12.70 387.00 L13.51 386.00 L14.33 385.00 L15.14 384.00 L15.95 383.00 L16.76 382.00 L17.58 381.00 L18.39 380.00 L19.20 379.00 L20.01 378.00 L20.83 377.00 L21.64 376.00 L22.45 375.00 L23.26 374.00 L24.08 373.00 L24.89 372.00 L25.70 371.00 L26.51 370.00 L27.33 369.00 L28.14 368.00 L28.95 367.00 L29.76 366.00 L30.58 365.00 L31.39 364.00 L32.20 363.00 L33.01 362.00 L33.83 361.00 L34.64 360.00 L35.45 359.00 L36.26 358.00 L37.08 357.00 L37.89 356.00 L38.70 355.00 L39.51 354.00 L40.33 353.00 L41.14 352.00 L41.95 351.00 L42.76 350.00 L43.58 349.00 L44.39 348.00 L45.20 347.00 L46.01 346.00 L46.83 345.00 L47.64 344.00 L48.45 343.00 L49.26 342.00 L50.08 341.00 L50.89 340.00 L51.70 339.00 L52.51 338.00 L53.33 337.00 L54.14 336.00 L54.95 335.00 L55.76 334.00 L56.58 333.00 L57.39 332.00 L58.20 331.00 L59.01 330.00 L59.83 329.00 L60.64 328.00 L61.45 327.00 L62.26 326.00 L63.08 325.00 L63.89 324.00 L64.70 323.00 L65.51 322.00 L66.33 321.00 L67.14 320.00 L67.95 319.00 L68.76 318.00 L69.58 317.00 L70.39 316.00 L71.20 315.00 L72.01 314.00 L72.83 313.00 L73.64 312.00 L74.45 311.00 L75.26 310.00 L76.08 309.00 L76.89 308.00 L77.70 307.00 L78.51 306.00 L79.33 305.00 L80.14 304.00 L80.95 303.00 L81.76 302.00 L82.58 301.00 L83.39 300.00 L84.20 299.00 L85.01 298.00 L85.83 297.00 L86.64 296.00 L87.45 295.00 L88.26 294.00 L89.08 293.00 L89.89 292.00 L90.70 291.00 L91.51 290.00 L92.33 289.00 L93.14 288.00 L93.95 287.00 L94.76 286.00 L95.58 285.00 L96.39 284.00 L97.20 283.00 L98.01 282.00 L98.83 281.00 L99.64 280.00 L100.45 279.00 L101.26 278.00 L102.08 277.00 L102.89 276.00 L103.70 275.00 L104.51 274.00 L105.33 273.00 L106.14 272.00 L106.95 271.00 L107.76 270.00 L108.58 269.00 L109.39 268.00 L110.20 267.00 L111.01 266.00 L111.83 265.00 L112.64 264.00 L113.45 263.00 L114.26 262.00 L115.08 261.00 L115.89 260.00 L116.70 259.00 L117.51 258.00 L118.33 257.00 L119.14 256.00 L119.95 255.00 L120.76 254.00 L121.58 253.00 L122.39 252.00 L123.20 251.00 L124.01 250.00 L124.83 249.00 L125.64 248.00 L126.45 247.00 L127.26 246.00 L128.08 245.00 L128.89 244.00 L129.70 243.00 L130.51 242.00 L131.33 241.00 L132.14 240.00 L132.95 239.00 L133.76 238.00 L134.58 237.00 L135.39 236.00 L136.20 235.00 L137.01 234.00 L137.83 233.00 L138.64 232.00 L139.45 231.00 L140.26 230.00 L141.08 229.00 L141.89 228.00 L142.70 227.00 L143.51 226.00 L144.33 225.00 L145.14 224.00 L145.95 223.00 L146.76 222.00 L147.58 221.00 L148.39 220.00 L149.20 219.00 L150.01 218.00 L150.83 217.00 L151.64 216.00 L152.45 215.00 L153.26 214.00 L154.08 213.00 L154.89 212.00 L155.70 211.00 L156.51 210.00 L157.33 209.00 L158.14 208.00 L158.95 207.00 L159.76 206.00 L160.58 205.00 L161.39 204.00 L162.20 203.00 L163.01 202.00 L163.83 201.00 L164.64 200.00 L165.45 199.00 L166.26 198.00 L167.08 197.00 L167.89 196.00 L168.70 195.00 L169.51 194.00 L170.33 193.00 L171.14 192.00 L171.95 191.00 L172.76 190.00 L173.58 189.00 L174.39 188.00 L175.20 187.00 L176.01 186.00 L176.83 185.00 L177.64 184.00 L178.45 183.00 L179.26 182.00 L180.08 181.00 L180.89 180.00 L181.70 179.00 L182.51 178.00 L183.33 177.00 L184.14 176.00 L184.95 175.00 L185.76 174.00 L186.58 173.00 L187.39 172.00 L188.20 171.00 L189.01 170.00 L189.83 169.00 L190.64 168.00 L191.45 167.00 L192.26 166.00 L193.08 165.00 L193.89 164.00 L194.70 163.00 L195.51 162.00 L196.33 161.00 L197.14 160.00 L197.95 159.00 L198.76 158.00 L199.58 157.00 L200.39 156.00 L201.20 155.00 L202.01 154.00 L202.83 153.00 L203.64 152.00 L204.45 151.00 L205.26 150.00 L206.08 149.00 L206.89 148.00 L207.70 147.00 L208.51 146.00 L209.33 145.00 L210.14 144.00 L210.95 143.00 L211.76 142.00 L212.58 141.00 L213.39 140.00 L214.20 139.00 L215.01 138.00 L215.83 137.00 L216.64 136.00 L217.45 135.00 L218.26 134.00 L219.08 133.00 L219.89 132.00 L220.70 131.00 L221.51 130.00 L222.33 129.00 L223.14 128.00 L223.95 127.00 L224.76 126.00 L225.58 125.00 L226.39 124.00 L227.20 123.00 L228.01 122.00 L228.83 121.00 L229.64 120.00 L230.45 119.00 L231.26 118.00 L232.08 117.00 L232.89 116.00 L233.70 115.00 L234.51 114.00 L235.33 113.00 L236.14 112.00 L236.95 111.00 L237.76 110.00 L238.58 109.00 L239.39 108.00 L240.20 107.00 L241.01 106.00 L241.83 105.00 L242.64 104.00 L243.45 103.00 L244.26 102.00 L245.08 101.00 L245.89 100.00 L246.70 99.00 L247.51 98.00 L248.33 97.00 L249.14 96.00 L249.95 95.00 L250.76 94.00 L251.58 93.00 L252.39 92.00 L253.20 91.00 L254.01 90.00 L254.83 89.00 L255.64 88.00 L256.45 87.00 L257.26 86.00 L258.08 85.00 L258.89 84.00 L259.70 83.00 L260.51 82.00 L261.33 81.00 L262.14 80.00 L262.95 79.00 L263.76 78.00 L264.58 77.00 L265.39 76.00 L266.20 75.00 L267.01 74.00 L267.83 73.00 L268.64 72.00 L269.45 71.00 L270.26 70.00 L271.08 69.00 L271.89 68.00 L272.70 67.00 L273.51 66.00 L274.33 65.00 L275.14 64.00 L275.95 63.00 L276.76 62.00 L277.58 61.00 L278.39 60.00 L279.20 59.00 L280.01 58.00 L280.83 57.00 L281.64 56.00 L282.45 55.00 L283.26 54.00 L284.08 53.00 L284.89 52.00 L285.70 51.00 L286.51 50.00 L287.33 49.00 L288.14 48.00 L288.95 47.00 L289.76 46.00 L290.58 45.00 L291.39 44.00 L292.20 43.00 L293.01 42.00 L293.83 41.00 L294.64 40.00 L295.45 39.00 L296.26 38.00 L297.08 37.00 L297.89 36.00 L298.70 35.00 L299.51 34.00 L300.33 33.00 L301.14 32.00 L301.95 31.00 L302.76 30.00 L303.58 29.00 L304.39 28.00 L305.20 27.00 L306.01 26.00 L306.83 25.00 L307.64 24.00 L308.45 23.00 L309.26 22.00 L310.08 21.00 L310.89 20.00 L311.70 19.00 L312.51 18.00 L313.33 17.00 L314.14 16.00 L314.95 15.00 L315.76 14.00 L316.58 13.00 L317.39 12.00 L318.20 11.00 L319.01 10.00 L319.83 9.00 L320.64 8.00 L321.45 7.00 L322.26 6.00 L323.08 5.00 L323.89 4.00 L324.70 3.00 L325.51 2.00 L326.33 1.00 L327.14 -0.00 " style="fill:none;stroke:#2B00FF;stroke-width:1;" /><path d="M-10.00 200.00 L-0.25 350.00 L0.75 350.39 L2.75 351.14 L4.75 351.85 L6.75 352.51 L8.75 353.13 L10.75 353.70 L12.75 354.24 L14.75 354.73 L16.75 355.18 L18.75 355.59 L20.75 355.95 L22.75 356.27 L24.75 356.55 L26.75 356.79 L28.75 356.98 L30.75 357.13 L32.75 357.24 L34.75 357.30 L36.75 357.33 L38.75 357.31 L40.75 357.24 L42.75 357.14 L44.75 356.99 L46.75 356.80 L48.75 356.57 L50.75 356.29 L52.75 355.97 L54.75 355.61 L56.75 355.21 L58.75 354.76 L60.75 354.27 L62.75 353.74 L64.75 353.16 L66.75 352.55 L68.75 351.89 L70.75 351.18 L72.75 350.44 L74.75 349.65 L76.75 348.82 L78.75 347.95 L80.75 347.03 L82.75 346.07 L84.75 345.07 L86.75 344.03 L88.66 342.99 L90.51 341.95 L92.28 340.92 L94.00 339.89 L95.67 338.86 L97.28 337.83 L98.85 336.80 L100.38 335.78 L101.88 334.75 L103.34 333.73 L104.76 332.71 L106.16 331.69 L107.52 330.67 L108.86 329.65 L110.17 328.63 L111.46 327.61 L112.73 326.59 L113.98 325.58 L115.20 324.56 L116.41 323.54 L117.59 322.53 L118.76 321.51 L119.92 320.50 L121.05 319.49 L122.17 318.47 L123.28 317.46 L124.37 316.45 L125.45 315.43 L126.51 314.42 L127.56 313.41 L128.60 312.40 L129.63 311.39 L130.65 310.38 L131.65 309.37 L132.65 308.36 L133.63 307.34 L134.60 306.33 L135.57 305.32 L136.52 304.32 L137.47 303.31 L138.40 302.30 L139.33 301.29 L140.25 300.28 L141.16 299.27 L142.06 298.26 L142.96 297.25 L143.84 296.24 L144.72 295.23 L145.60 294.23 L146.46 293.22 L147.32 292.21 L148.17 291.20 L149.02 290.20 L149.86 289.19 L150.69 288.18 L151.51 287.17 L152.33 286.17 L153.15 285.16 L153.96 284.15 L154.76 283.14 L155.56 282.14 L156.35 281.13 L157.14 280.12 L157.92 279.12 L158.70 278.11 L159.47 277.11 L160.24 276.10 L161.00 275.09 L161.76 274.09 L162.51 273.08 L163.26 272.07 L164.00 271.07 L164.74 270.06 L165.47 269.06 L166.21 268.05 L166.93 267.05 L167.66 266.04 L168.37 265.03 L169.09 264.03 L169.80 263.02 L170.51 262.02 L171.21 261.01 L171.91 260.01 L172.61 259.00 L173.30 258.00 L173.99 256.99 L174.67 255.99 L175.35 254.98 L176.03 253.98 L176.71 252.97 L177.38 251.97 L178.05 250.96 L178.71 249.96 L179.38 248.95 L180.03 247.95 L180.69 246.94 L181.34 245.94 L181.99 244.94 L182.64 243.93 L183.29 242.93 L183.93 241.92 L184.57 240.92 L185.20 239.91 L185.84 238.91 L186.47 237.90 L187.09 236.90 L187.72 235.90 L188.34 234.89 L188.96 233.89 L189.58 232.88 L190.20 231.88 L190.81 230.88 L191.42 229.87 L192.03 228.87 L192.63 227.86 L193.23 226.86 L193.83 225.86 L194.43 224.85 L195.03 223.85 L195.62 222.85 L196.21 221.84 L196.80 220.84 L197.39 219.83 L197.98 218.83 L198.56 217.83 L199.14 216.82 L199.72 215.82 L200.30 214.82 L200.87 213.81 L201.44 212.81 L202.01 211.81 L202.58 210.80 L203.15 209.80 L203.71 208.80 L204.28 207.79 L204.84 206.79 L205.40 205.79 L205.95 204.78 L206.51 203.78 L207.06 202.78 L207.61 201.77 L208.16 200.77 L208.71 199.77 L209.26 198.76 L209.80 197.76 L210.35 196.76 L210.89 195.75 L211.43 194.75 L211.96 193.75 L212.50 192.74 L213.03 191.74 L213.57 190.74 L214.10 189.73 L214.63 188.73 L215.16 187.73 L215.68 186.73 L216.21 185.72 L216.73 184.72 L217.25 183.72 L217.77 182.71 L218.29 181.71 L218.81 180.71 L219.33 179.71 L219.84 178.70 L220.35 177.70 L220.87 176.70 L221.38 175.69 L221.88 174.69 L222.39 173.69 L222.90 172.69 L223.40 171.68 L223.91 170.68 L224.41 169.68 L224.91 168.68 L225.41 167.67 L225.91 166.67 L226.40 165.67 L226.90 164.66 L227.39 163.66 L227.88 162.66 L228.37 161.66 L228.87 160.65 L229.35 159.65 L229.84 158.65 L230.33 157.65 L230.81 156.64 L231.30 155.64 L231.78 154.64 L232.26 153.64 L232.74 152.63 L233.22 151.63 L233.70 150.63 L234.18 149.63 L234.65 148.62 L235.13 147.62 L235.60 146.62 L236.07 145.62 L236.54 144.61 L237.01 143.61 L237.48 142.61 L237.95 141.61 L238.42 140.61 L238.88 139.60 L239.35 138.60 L239.81 137.60 L240.27 136.60 L240.73 135.59 L241.19 134.59 L241.65 133.59 L242.11 132.59 L242.57 131.59 L243.03 130.58 L243.48 129.58 L243.94 128.58 L244.39 127.58 L244.84 126.57 L245.29 125.57 L245.74 124.57 L246.19 123.57 L246.64 122.57 L247.09 121.56 L247.53 120.56 L247.98 119.56 L248.42 118.56 L248.87 117.55 L249.31 116.55 L249.75 115.55 L250.19 114.55 L250.63 113.55 L251.07 112.54 L251.51 111.54 L251.95 110.54 L252.38 109.54 L252.82 108.54 L253.25 107.53 L253.69 106.53 L254.12 105.53 L254.55 104.53 L254.98 103.53 L255.41 102.52 L255.84 101.52 L256.27 100.52 L256.70 99.52 L257.13 98.52 L257.55 97.51 L257.98 96.51 L258.40 95.51 L258.82 94.51 L259.25 93.51 L259.67 92.50 L260.09 91.50 L260.51 90.50 L260.93 89.50 L261.35 88.50 L261.77 87.50 L262.18 86.49 L262.60 85.49 L263.02 84.49 L263.43 83.49 L263.85 82.49 L264.26 81.48 L264.67 80.48 L265.08 79.48 L265.49 78.48 L265.91 77.48 L266.31 76.48 L266.72 75.47 L267.13 74.47 L267.54 73.47 L267.95 72.47 L268.35 71.47 L268.76 70.46 L269.16 69.46 L269.57 68.46 L269.97 67.46 L270.37 66.46 L270.77 65.46 L271.18 64.45 L271.58 63.45 L271.98 62.45 L272.37 61.45 L272.77 60.45 L273.17 59.45 L273.57 58.44 L273.96 57.44 L274.36 56.44 L274.75 55.44 L275.15 54.44 L275.54 53.44 L275.94 52.43 L276.33 51.43 L276.72 50.43 L277.11 49.43 L277.50 48.43 L277.89 47.43 L278.28 46.42 L278.67 45.42 L279.06 44.42 L279.45 43.42 L279.83 42.42 L280.22 41.42 L280.60 40.41 L280.99 39.41 L281.37 38.41 L281.76 37.41 L282.14 36.41 L282.52 35.41 L282.90 34.41 L283.29 33.40 L283.67 32.40 L284.05 31.40 L284.43 30.40 L284.81 29.40 L285.18 28.40 L285.56 27.39 L285.94 26.39 L286.32 25.39 L286.69 24.39 L287.07 23.39 L287.44 22.39 L287.82 21.39 L288.19 20.38 L288.56 19.38 L288.94 18.38 L289.31 17.38 L289.68 16.38 L290.05 15.38 L290.42 14.38 L290.79 13.37 L291.16 12.37 L291.53 11.37 L291.90 10.37 L292.27 9.37 L292.63 8.37 L293.00 7.37 L293.37 6.36 L293.73 5.36 L294.10 4.36 L294.46 3.36 L294.83 2.36 L295.19 1.36 L295.55 0.36 L295.92 -0.65 " style="fill:none;stroke:#00FF48;stroke-width:1;" /></g></svg>