<?xml version="1.0" standalone="no"?><!DOCTYPE svg PUBLIC "-//W3C//DTD SVG 1.1//EN" "http://www.w3.org/Graphics/SVG/1.1/DTD/svg11.dtd"><svg xmlns="http://www.w3.org/2000/svg" viewBox="0 0 650 400" version="1.1"><clipPath id="box"><rect x="0" y="0" width="650" height="400" style="fill:none;stroke:none;" /></clipPath><g clip-path="url(#box)"><rect x="0.00" y="0.00" width="650.00" height="400.00" style="fill:#FFFFFF;stroke:none;" /><path d="M30.89 0.00 L30.89 400.00 " style="fill:none;stroke:#000000;stroke-width:1;" /><path d="M0.00 368.94 L650.00 368.94 " style="fill:none;stroke:#000000;stroke-width:1;" /><text x="39.01898246268067" y="371.4376909749837" text-anchor="start" style="font:10px Droid Sans,Trebuchet MS,Arial,Helvetica,sans-serif;stroke:none;fill:#000000">0</text><text x="39.01898246268067" y="295.17761824771065" text-anchor="start" style="font:10px Droid Sans,Trebuchet MS,Arial,Helvetica,sans-serif;stroke:none;fill:#000000">10</text><text x="39.01898246268067" y="218.9175455204376" text-anchor="start" style="font:10px Droid Sans,Trebuchet MS,Arial,Helvetica,sans-serif;stroke:none;fill:#000000">20</text><text x="39.01898246268067" y="142.65747279316457" text-anchor="start" style="font:10px Droid Sans,Trebuchet MS,Arial,Helvetica,sans-serif;stroke:none;fill:#000000">30</text><text x="39.01898246268067" y="66.39740006589152" text-anchor="start" style="font:10px Droid Sans,Trebuchet MS,Arial,Helvetica,sans-serif;stroke:none;fill:#000000">40</text><text x="30.89398246268067" y="385.0626909749837" text-anchor="middle" style="font:10px Droid Sans,Trebuchet MS,Arial,Helvetica,sans-serif;stroke:none;fill:#000000">0</text><text x="92.85529155359005" y="385.0626909749837" text-anchor="middle" style="font:10px Droid Sans,Trebuchet MS,Arial,Helvetica,sans-serif;stroke:none;fill:#000000">5</text><text x="154.81660064449943" y="385.0626909749837" text-anchor="middle" style="font:10px Droid Sans,Trebuchet MS,Arial,Helvetica,sans-serif;stroke:none;fill:#000000">10</text><text x="216.77790973540883" y="385.0626909749837" text-anchor="middle" style="font:10px Droid Sans,Trebuchet MS,Arial,Helvetica,sans-serif;stroke:none;fill:#000000">15</text><text x="278.7392188263182" y="385.0626909749837" text-anchor="middle" style="font:10px Droid Sans,Trebuchet MS,Arial,Helvetica,sans-serif;stroke:none;fill:#000000">20</text><text x="340.7005279172276" y="385.0626909749837" text-anchor="middle" style="font:10px Droid Sans,Trebuchet MS,Arial,Helvetica,sans-serif;stroke:none;fill:#000000">25</text><text x="402.66183700813696" y="385.0626909749837" text-anchor="middle" style="font:10px Droid Sans,Trebuchet MS,Arial,Helvetica,sans-serif;stroke:none;fill:#000000">30</text><text x="464.6231460990463" y="385.0626909749837" text-anchor="middle" style="font:10px Droid Sans,Trebuchet MS,Arial,Helvetica,sans-serif;stroke:none;fill:#000000">35</text><text x="526.5844551899557" y="385.0626909749837" text-anchor="middle" style="font:10px Droid Sans,Trebuchet MS,Arial,Helvetica,sans-serif;stroke:none;fill:#000000">40</text><text x="588.5457642808651" y="385.0626909749837" text-anchor="middle" style="font:10px Droid Sans,Trebuchet MS,Arial,Helvetica,sans-serif;stroke:none;fill:#000000">45</text><path d="M-10.00 200.00 L-0.25 388.10 L0.75 387.49 L2.38 386.49 L4.00 385.49 L5.63 384.49 L7.25 383.49 L8.88 382.49 L10.50 381.49 L12.13 380.49 L13.75 379.49 L15.38 378.49 L17.00 377.49 L18.63 376.49 L20.25 375.49 L21.88 374.49 L23.50 373.49 L25.13 372.49 L26.75 371.49 L28.38 370.49 L30.00 369.49 L31.63 368.49 L33.25 367.49 L34.88 366.49 L36.50 365.49 L38.13 364.49 L39.75 363.49 L41.38 362.49 L43.00 361.49 L44.63 360.49 L46.25 359.49 L47.88 358.49 L49.50 357.49 L51.13 356.49 L52.75 355.49 L54.38 354.49 L56.00 353.49 L57.63 352.49 L59.25 351.49 L60.88 350.49 L62.50 349.49 L64.13 348.49 L65.75 347.49 L67.38 346.49 L69.00 345.49 L70.63 344.49 L72.25 343.49 L73.88 342.49 L75.50 341.49 L77.13 340.49 L78.75 339.49 L80.38 338.49 L82.00 337.49 L83.63 336.49 L85.25 335.49 L86.88 334.49 L88.50 333.49 L90.13 332.49 L91.75 331.49 L93.38 330.49 L95.00 329.49 L96.63 328.49 L98.25 327.49 L99.88 326.49 L101.50 325.49 L103.13 324.49 L104.75 323.49 L106.38 322.49 L108.00 321.49 L109.63 320.49 L111.25 319.49 L112.88 318.49 L114.50 317.49 L116.13 316.49 L117.75 315.49 L119.38 314.49 L121.00 313.49 L122.63 312.49 L124.25 311.49 L125.88 310.49 L127.50 309.49 L129.13 308.49 L130.75 307.49 L132.38 306.49 L134.00 305.49 L135.63 304.49 L137.25 303.49 L138.88 302.49 L140.50 301.49 L142.13 300.49 L143.75 299.49 L145.38 298.49 L147.00 297.49 L148.63 296.49 L150.25 295.49 L151.88 294.49 L153.50 293.49 L155.13 292.49 L156.75 291.49 L158.38 290.49 L160.00 289.49 L161.63 288.49 L163.25 287.49 L164.88 286.49 L166.50 285.49 L168.13 284.49 L169.75 283.49 L171.38 282.49 L173.00 281.49 L174.63 280.49 L176.25 279.49 L177.88 278.49 L179.50 277.49 L181.13 276.49 L182.75 275.49 L184.38 274.49 L186.00 273.49 L187.63 272.49 L189.25 271.49 L190.88 270.49 L192.50 269.49 L194.13 268.49 L195.75 267.49 L197.38 266.49 L199.00 265.49 L200.63 264.49 L202.25 263.49 L203.88 262.49 L205.50 261.49 L207.13 260.49 L208.75 259.49 L210.38 258.49 L212.00 257.49 L213.63 256.49 L215.25 255.49 L216.88 254.49 L218.50 253.49 L220.13 252.49 L221.75 251.49 L223.38 250.49 L225.00 249.49 L226.63 248.49 L228.25 247.49 L229.88 246.49 L231.50 245.49 L233.13 244.49 L234.75 243.49 L236.38 242.49 L238.00 241.49 L239.63 240.49 L241.25 239.49 L242.88 238.49 L244.50 237.49 L246.13 236.49 L247.75 235.49 L249.38 234.49 L251.00 233.49 L252.63 232.49 L254.25 231.49 L255.88 230.49 L257.50 229.49 L259.13 228.49 L260.75 227.49 L262.38 226.49 L264.00 225.49 L265.63 224.49 L267.25 223.49 L268.88 222.49 L270.50 221.49 L272.13 220.49 L273.75 219.49 L275.38 218.49 L277.00 217.49 L278.63 216.49 L280.25 215.49 L281.88 214.49 L283.50 213.49 L285.13 212.49 L286.75 211.49 L288.38 210.49 L290.00 209.49 L291.63 208.49 L293.25 207.49 L294.88 206.49 L296.50 205.49 L298.13 204.49 L299.75 203.49 L301.38 202.49 L303.00 201.49 L304.63 200.49 L306.25 199.49 L307.88 198.49 L309.50 197.49 L311.13 196.49 L312.75 195.49 L314.38 194.49 L316.00 193.49 L317.63 192.49 L319.25 191.49 L320.88 190.49 L322.50 189.49 L324.13 188.49 L325.75 187.49 L327.38 186.49 L329.00 185.49 L330.63 184.49 L332.25 183.49 L333.88 182.49 L335.50 181.49 L337.13 180.49 L338.75 179.49 L340.38 178.49 L342.00 177.49 L343.63 176.49 L345.25 175.49 L346.88 174.49 L348.50 173.49 L350.13 172.49 L351.75 171.49 L353.38 170.49 L355.00 169.49 L356.63 168.49 L358.25 167.49 L359.88 166.49 L361.50 165.49 L363.13 164.49 L364.75 163.49 L366.38 162.49 L368.00 161.49 L369.63 160.49 L371.25 159.49 L372.88 158.49 L374.50 157.49 L376.13 156.49 L377.75 155.49 L379.38 154.49 L381.00 153.49 L382.63 152.49 L384.25 151.49 L385.88 150.49 L387.50 149.49 L389.13 148.49 L390.75 147.49 L392.38 146.49 L394.00 145.49 L395.63 144.49 L397.25 143.49 L398.88 142.49 L400.50 141.49 L402.13 140.49 L403.75 139.49 L405.38 138.49 L407.00 137.49 L408.63 136.49 L410.25 135.49 L411.88 134.49 L413.50 133.49 L415.13 132.49 L416.75 131.49 L418.38 130.49 L420.00 129.49 L421.63 128.49 L423.25 127.49 L424.88 126.49 L426.50 125.49 L428.13 124.49 L429.75 123.49 L431.38 122.49 L433.00 121.49 L434.63 120.49 L436.25 119.49 L437.88 118.49 L439.50 117.49 L441.13 116.49 L442.75 115.49 L444.38 114.49 L446.00 113.49 L447.63 112.49 L449.25 111.49 L450.88 110.49 L452.50 109.49 L454.13 108.49 L455.75 107.49 L457.38 106.49 L459.00 105.49 L460.63 104.49 L462.25 103.49 L463.88 102.49 L465.50 101.49 L467.13 100.49 L468.75 99.49 L470.38 98.49 L472.00 97.49 L473.63 96.49 L475.25 95.49 L476.88 94.49 L478.50 93.49 L480.13 92.49 L481.75 91.49 L483.38 90.49 L485.00 89.49 L486.63 88.49 L488.25 87.49 L489.88 86.49 L491.50 85.49 L493.13 84.49 L494.75 83.49 L496.38 82.49 L498.00 81.49 L499.63 80.49 L501.25 79.49 L502.88 78.49 L504.50 77.49 L506.13 76.49 L507.75 75.49 L509.38 74.49 L511.00 73.49 L512.63 72.49 L514.25 71.49 L515.88 70.49 L517.50 69.49 L519.13 68.49 L520.75 67.49 L522.38 66.49 L524.00 65.49 L525.63 64.49 L527.25 63.49 L528.88 62.49 L530.50 61.49 L532.13 60.49 L533.75 59.49 L535.38 58.49 L537.00 57.49 L538.63 56.49 L540.25 55.49 L541.88 54.49 L543.50 53.49 L545.13 52.49 L546.75 51.49 L548.38 50.49 L550.00 49.49 L551.63 48.49 L553.25 47.49 L554.88 46.49 L556.50 45.49 L558.13 44.49 L559.75 43.49 L561.38 42.49 L563.00 41.49 L564.63 40.49 L566.25 39.49 L567.88 38.49 L569.50 37.49 L571.13 36.49 L572.75 35.49 L574.38 34.49 L576.00 33.49 L577.63 32.49 L579.25 31.49 L580.88 30.49 L582.50 29.49 L584.13 28.49 L585.75 27.49 L587.38 26.49 L589.00 25.49 L590.63 24.49 L592.25 23.49 L593.88 22.49 L595.50 21.49 L597.13 20.49 L598.75 19.49 L600.38 18.49 L602.00 17.49 L603.63 16.49 L605.25 15.49 L606.88 14.49 L608.50 13.49 L610.13 12.49 L611.75 11.49 L613.38 10.49 L615.00 9.49 L616.63 8.49 L618.25 7.49 L619.88 6.49 L621.50 5.49 L623.13 4.49 L624.75 3.49 L626.38 2.49 L628.00 1.49 L629.63 0.49 L631.25 -0.51 " style="fill:none;stroke:#FF0000;stroke-width:1;" /><path d="M5.65 400.00 L5.66 400.00 L6.47 399.00 L7.28 398.00 L8.09 397.00 L8.91 396.00 L9.72 395.00 L10.53 394.00 L11.34 393.00 L12.16 392.00 L12.97 391.00 L13.78 390.00 L14.59 389.00 L15.41 388.00 L16.22 387.00 L17.03 386.00 L17.84 385.00 L18.66 384.00 L19.47 383.00 L20.28 382.00 L21.09 381.00 L21.91 380.00 L22.72 379.00 L23.53 378.00 L24.34 377.00 L25.16 376.00 L25.97 375.00 L26.78 374.00 L27.59 373.00 L28.41 372.00 L29.22 371.00 L30.03 370.00 L30.84 369.00 L31.66 368.00 L32.47 367.00 L33.28 366.00 L34.09 365.00 L34.91 364.00 L35.72 363.00 L36.53 362.00 L37.34 361.00 L38.16 360.00 L38.97 359.00 L39.78 358.00 L40.59 357.00 L41.41 356.00 L42.22 355.00 L43.03 354.00 L43.84 353.00 L44.66 352.00 L45.47 351.00 L46.28 350.00 L47.09 349.00 L47.91 348.00 L48.72 347.00 L49.53 346.00 L50.34 345.00 L51.16 344.00 L51.97 343.00 L52.78 342.00 L53.59 341.00 L54.41 340.00 L55.22 339.00 L56.03 338.00 L56.84 337.00 L57.66 336.00 L58.47 335.00 L59.28 334.00 L60.09 333.00 L60.91 332.00 L61.72 331.00 L62.53 330.00 L63.34 329.00 L64.16 328.00 L64.97 327.00 L65.78 326.00 L66.59 325.00 L67.41 324.00 L68.22 323.00 L69.03 322.00 L69.84 321.00 L70.66 320.00 L71.47 319.00 L72.28 318.00 L73.09 317.00 L73.91 316.00 L74.72 315.00 L75.53 314.00 L76.34 313.00 L77.16 312.00 L77.97 311.00 L78.78 310.00 L79.59 309.00 L80.41 308.00 L81.22 307.00 L82.03 306.00 L82.84 305.00 L83.66 304.00 L84.47 303.00 L85.28 302.00 L86.09 301.00 L86.91 300.00 L87.72 299.00 L88.53 298.00 L89.34 297.00 L90.16 296.00 L90.97 295.00 L91.78 294.00 L92.59 293.00 L93.41 292.00 L94.22 291.00 L95.03 290.00 L95.84 289.00 L96.66 288.00 L97.47 287.00 L98.28 286.00 L99.09 285.00 L99.91 284.00 L100.72 283.00 L101.53 282.00 L102.34 281.00 L103.16 280.00 L103.97 279.00 L104.78 278.00 L105.59 277.00 L106.41 276.00 L107.22 275.00 L108.03 274.00 L108.84 273.00 L109.66 272.00 L110.47 271.00 L111.28 270.00 L112.09 269.00 L112.91 268.00 L113.72 267.00 L114.53 266.00 L115.34 265.00 L116.16 264.00 L116.97 263.00 L117.78 262.00 L118.59 261.00 L119.41 260.00 L120.22 259.00 L121.03 258.00 L121.84 257.00 L122.66 256.00 L123.47 255.00 L124.28 254.00 L125.09 253.00 L125.91 252.00 L126.72 251.00 L127.53 250.00 L128.34 249.00 L129.16 248.00 L129.97 247.00 L130.78 246.00 L131.59 245.00 L132.41 244.00 L133.22 243.00 L134.03 242.00 L134.84 241.00 L135.66 240.00 L136.47 239.00 L137.28 238.00 L138.09 237.00 L138.91 236.00 L139.72 235.00 L140.53 234.00 L141.34 233.00 L142.16 232.00 L142.97 231.00 L143.78 230.00 L144.59 229.00 L145.41 228.00 L146.22 227.00 L147.03 226.00 L147.84 225.00 L148.66 224.00 L149.47 223.00 L150.28 222.00 L151.09 221.00 L151.91 220.00 L152.72 219.00 L153.53 218.00 L154.34 217.00 L155.16 216.00 L155.97 215.00 L156.78 214.00 L157.59 213.00 L158.41 212.00 L159.22 211.00 L160.03 210.00 L160.84 209.00 L161.66 208.00 L162.47 207.00 L163.28 206.00 L164.09 205.00 L164.91 204.00 L165.72 203.00 L166.53 202.00 L167.34 201.00 L168.16 200.00 L168.97 199.00 L169.78 198.00 L170.59 197.00 L171.41 196.00 L172.22 195.00 L173.03 194.00 L173.84 193.00 L174.66 192.00 L175.47 191.00 L176.28 190.00 L177.09 189.00 L177.91 188.00 L178.72 187.00 L179.53 186.00 L180.34 185.00 L181.16 184.00 L181.97 183.00 L182.78 182.00 L183.59 181.00 L184.41 180.00 L185.22 179.00 L186.03 178.00 L186.84 177.00 L187.66 176.00 L188.47 175.00 L189.28 174.00 L190.09 173.00 L190.91 172.00 L191.72 171.00 L192.53 170.00 L193.34 169.00 L194.16 168.00 L194.97 167.00 L195.78 166.00 L196.59 165.00 L197.41 164.00 L198.22 163.00 L199.03 162.00 L199.84 161.00 L200.66 160.00 L201.47 159.00 L202.28 158.00 L203.09 157.00 L203.91 156.00 L204.72 155.00 L205.53 154.00 L206.34 153.00 L207.16 152.00 L207.97 151.00 L208.78 150.00 L209.59 149.00 L210.41 148.00 L211.22 147.00 L212.03 146.00 L212.84 145.00 L213.66 144.00 L214.47 143.00 L215.28 142.00 L216.09 141.00 L216.91 140.00 L217.72 139.00 L218.53 138.00 L219.34 137.00 L220.16 136.00 L220.97 135.00 L221.78 134.00 L222.59 133.00 L223.41 132.00 L224.22 131.00 L225.03 130.00 L225.84 129.00 L226.66 128.00 L227.47 127.00 L228.28 126.00 L229.09 125.00 L229.91 124.00 L230.72 123.00 L231.53 122.00 L232.34 121.00 L233.16 120.00 L233.97 119.00 L234.78 118.00 L235.59 117.00 L236.41 116.00 L237.22 115.00 L238.03 114.00 L238.84 113.00 L239.66 112.00 L240.47 111.00 L241.28 110.00 L242.09 109.00 L242.91 108.00 L243.72 107.00 L244.53 106.00 L245.34 105.00 L246.16 104.00 L246.97 103.00 L247.78 102.00 L248.59 101.00 L249.41 100.00 L250.22 99.00 L251.03 98.00 L251.84 97.00 L252.66 96.00 L253.47 95.00 L254.28 94.00 L255.09 93.00 L255.91 92.00 L256.72 91.00 L257.53 90.00 L258.34 89.00 L259.16 88.00 L259.97 87.00 L260.78 86.00 L261.59 85.00 L262.41 84.00 L263.22 83.00 L264.03 82.00 L264.84 81.00 L265.66 80.00 L266.47 79.00 L267.28 78.00 L268.09 77.00 L268.91 76.00 L269.72 75.00 L270.53 74.00 L271.34 73.00 L272.16 72.00 L272.97 71.00 L273.78 70.00 L274.59 69.00 L275.41 68.00 L276.22 67.00 L277.03 66.00 L277.84 65.00 L278.66 64.00 L279.47 63.00 L280.28 62.00 L281.09 61.00 L281.91 60.00 L282.72 59.00 L283.53 58.00 L284.34 57.00 L285.16 56.00 L285.97 55.00 L286.78 54.00 L287.59 53.00 L288.41 52.00 L289.22 51.00 L290.03 50.00 L290.84 49.00 L291.66 48.00 L292.47 47.00 L293.28 46.00 L294.09 45.00 L294.91 44.00 L295.72 43.00 L296.53 42.00 L297.34 41.00 L298.16 40.00 L298.97 39.00 L299.78 38.00 L300.59 37.00 L301.41 36.00 L302.22 35.00 L303.03 34.00 L303.84 33.00 L304.66 32.00 L305.47 31.00 L306.28 30.00 L307.09 29.00 L307.91 28.00 L308.72 27.00 L309.53 26.00 L310.34 25.00 L311.16 24.00 L311.97 23.00 L312.78 22.00 L313.59 21.00 L314.41 20.00 L315.22 19.00 L316.03 18.00 L316.84 17.00 L317.66 16.00 L318.47 15.00 L319.28 14.00 L320.09 13.00 L320.91 12.00 L321.72 11.00 L322.53 10.00 L323.34 9.00 L324.16 8.00 L324.97 7.00 L325.78 6.00 L326.59 5.00 L327.41 4.00 L328.22 3.00 L329.03 2.00 L329.84 1.00 L330.66 -0.00 " style="fill:none;stroke:#2B00FF;stroke-width:1;" /><path d="M-10.00 200.00 L-0.25 320.77 L0.75 323.82 L1.08 324.79 L1.41 325.78 L1.75 326.77 L2.10 327.76 L2.45 328.75 L2.80 329.74 L3.15 330.72 L3.51 331.71 L3.88 332.70 L4.25 333.68 L4.62 334.67 L5.01 335.66 L5.39 336.64 L5.78 337.63 L6.18 338.61 L6.59 339.59 L7.00 340.58 L7.41 341.56 L7.84 342.54 L8.27 343.52 L8.71 344.50 L9.16 345.48 L9.62 346.46 L10.09 347.44 L10.57 348.42 L11.06 349.40 L11.56 350.37 L12.07 351.35 L12.60 352.32 L13.14 353.29 L13.70 354.26 L14.28 355.23 L14.87 356.19 L15.49 357.15 L16.13 358.11 L16.80 359.07 L17.50 360.02 L18.23 360.97 L19.00 361.91 L19.82 362.85 L20.70 363.78 L21.65 364.69 L22.68 365.59 L23.83 366.46 L25.15 367.30 L26.73 368.07 L28.73 368.70 L30.73 368.94 L32.73 368.77 L34.73 368.21 L36.73 367.25 L38.73 365.89 L40.20 364.64 L41.37 363.48 L42.39 362.37 L43.31 361.28 L44.15 360.21 L44.94 359.15 L45.67 358.09 L46.37 357.04 L47.04 356.00 L47.67 354.96 L48.29 353.92 L48.87 352.88 L49.44 351.85 L50.00 350.82 L50.53 349.79 L51.05 348.76 L51.56 347.74 L52.05 346.71 L52.53 345.69 L53.00 344.67 L53.46 343.65 L53.91 342.63 L54.35 341.61 L54.79 340.59 L55.21 339.57 L55.63 338.55 L56.04 337.53 L56.44 336.52 L56.84 335.50 L57.23 334.49 L57.62 333.47 L58.00 332.46 L58.37 331.44 L58.74 330.43 L59.10 329.42 L59.46 328.40 L59.82 327.39 L60.17 326.38 L60.51 325.37 L60.86 324.36 L61.19 323.34 L61.53 322.33 L61.86 321.32 L62.19 320.31 L62.51 319.30 L62.83 318.29 L63.15 317.28 L63.46 316.27 L63.77 315.26 L64.08 314.25 L64.38 313.24 L64.69 312.23 L64.98 311.22 L65.28 310.22 L65.58 309.21 L65.87 308.20 L66.16 307.19 L66.44 306.18 L66.73 305.17 L67.01 304.17 L67.29 303.16 L67.57 302.15 L67.84 301.14 L68.12 300.14 L68.39 299.13 L68.66 298.12 L68.92 297.11 L69.19 296.11 L69.45 295.10 L69.72 294.09 L69.98 293.09 L70.24 292.08 L70.49 291.07 L70.75 290.07 L71.00 289.06 L71.25 288.05 L71.50 287.05 L71.75 286.04 L72.00 285.04 L72.24 284.03 L72.49 283.02 L72.73 282.02 L72.97 281.01 L73.21 280.01 L73.45 279.00 L73.69 277.99 L73.92 276.99 L74.16 275.98 L74.39 274.98 L74.62 273.97 L74.86 272.97 L75.08 271.96 L75.31 270.96 L75.54 269.95 L75.77 268.95 L75.99 267.94 L76.22 266.94 L76.44 265.93 L76.66 264.93 L76.88 263.92 L77.10 262.92 L77.32 261.91 L77.54 260.91 L77.75 259.90 L77.97 258.90 L78.18 257.89 L78.40 256.89 L78.61 255.89 L78.82 254.88 L79.03 253.88 L79.24 252.87 L79.45 251.87 L79.66 250.86 L79.86 249.86 L80.07 248.85 L80.27 247.85 L80.48 246.85 L80.68 245.84 L80.88 244.84 L81.09 243.83 L81.29 242.83 L81.49 241.83 L81.69 240.82 L81.89 239.82 L82.08 238.81 L82.28 237.81 L82.48 236.81 L82.67 235.80 L82.87 234.80 L83.06 233.80 L83.25 232.79 L83.45 231.79 L83.64 230.78 L83.83 229.78 L84.02 228.78 L84.21 227.77 L84.40 226.77 L84.59 225.77 L84.78 224.76 L84.96 223.76 L85.15 222.76 L85.34 221.75 L85.52 220.75 L85.71 219.75 L85.89 218.74 L86.07 217.74 L86.26 216.74 L86.44 215.73 L86.62 214.73 L86.80 213.73 L86.98 212.72 L87.16 211.72 L87.34 210.72 L87.52 209.71 L87.70 208.71 L87.87 207.71 L88.05 206.70 L88.23 205.70 L88.40 204.70 L88.58 203.69 L88.75 202.69 L88.93 201.69 L89.10 200.69 L89.28 199.68 L89.45 198.68 L89.62 197.68 L89.79 196.67 L89.96 195.67 L90.13 194.67 L90.30 193.66 L90.47 192.66 L90.64 191.66 L90.81 190.66 L90.98 189.65 L91.15 188.65 L91.32 187.65 L91.48 186.64 L91.65 185.64 L91.81 184.64 L91.98 183.64 L92.14 182.63 L92.31 181.63 L92.47 180.63 L92.64 179.63 L92.80 178.62 L92.96 177.62 L93.13 176.62 L93.29 175.62 L93.45 174.61 L93.61 173.61 L93.77 172.61 L93.93 171.61 L94.09 170.60 L94.25 169.60 L94.41 168.60 L94.57 167.59 L94.73 166.59 L94.89 165.59 L95.04 164.59 L95.20 163.59 L95.36 162.58 L95.51 161.58 L95.67 160.58 L95.82 159.58 L95.98 158.57 L96.13 157.57 L96.29 156.57 L96.44 155.57 L96.60 154.56 L96.75 153.56 L96.90 152.56 L97.06 151.56 L97.21 150.55 L97.36 149.55 L97.51 148.55 L97.66 147.55 L97.81 146.55 L97.97 145.54 L98.12 144.54 L98.27 143.54 L98.42 142.54 L98.56 141.53 L98.71 140.53 L98.86 139.53 L99.01 138.53 L99.16 137.53 L99.31 136.52 L99.45 135.52 L99.60 134.52 L99.75 133.52 L99.89 132.51 L100.04 131.51 L100.19 130.51 L100.33 129.51 L100.48 128.51 L100.62 127.50 L100.77 126.50 L100.91 125.50 L101.05 124.50 L101.20 123.50 L101.34 122.49 L101.48 121.49 L101.63 120.49 L101.77 119.49 L101.91 118.49 L102.05 117.48 L102.19 116.48 L102.34 115.48 L102.48 114.48 L102.62 113.48 L102.76 112.47 L102.90 111.47 L103.04 110.47 L103.18 109.47 L103.32 108.47 L103.46 107.46 L103.60 106.46 L103.73 105.46 L103.87 104.46 L104.01 103.46 L104.15 102.45 L104.29 101.45 L104.42 100.45 L104.56 99.45 L104.70 98.45 L104.83 97.45 L104.97 96.44 L105.11 95.44 L105.24 94.44 L105.38 93.44 L105.51 92.44 L105.65 91.43 L105.78 90.43 L105.92 89.43 L106.05 88.43 L106.19 87.43 L106.32 86.43 L106.45 85.42 L106.59 84.42 L106.72 83.42 L106.85 82.42 L106.99 81.42 L107.12 80.41 L107.25 79.41 L107.38 78.41 L107.51 77.41 L107.65 76.41 L107.78 75.41 L107.91 74.40 L108.04 73.40 L108.17 72.40 L108.30 71.40 L108.43 70.40 L108.56 69.40 L108.69 68.39 L108.82 67.39 L108.95 66.39 L109.08 65.39 L109.21 64.39 L109.34 63.39 L109.46 62.38 L109.59 61.38 L109.72 60.38 L109.85 59.38 L109.98 58.38 L110.10 57.38 L110.23 56.37 L110.36 55.37 L110.48 54.37 L110.61 53.37 L110.74 52.37 L110.86 51.37 L110.99 50.36 L111.11 49.36 L111.24 48.36 L111.37 47.36 L111.49 46.36 L111.62 45.36 L111.74 44.36 L111.87 43.35 L111.99 42.35 L112.11 41.35 L112.24 40.35 L112.36 39.35 L112.49 38.35 L112.61 37.34 L112.73 36.34 L112.86 35.34 L112.98 34.34 L113.10 33.34 L113.22 32.34 L113.35 31.34 L113.47 30.33 L113.59 29.33 L113.71 28.33 L113.83 27.33 L113.96 26.33 L114.08 25.33 L114.20 24.33 L114.32 23.32 L114.44 22.32 L114.56 21.32 L114.68 20.32 L114.80 19.32 L114.92 18.32 L115.04 17.32 L115.16 16.31 L115.28 15.31 L115.40 14.31 L115.52 13.31 L115.64 12.31 L115.76 11.31 L115.88 10.31 L115.99 9.30 L116.11 8.30 L116.23 7.30 L116.35 6.30 L116.47 5.30 L116.58 4.30 L116.70 3.30 L116.82 2.29 L116.94 1.29 L117.05 0.29 L117.17 -0.71 " style="fill:none;stroke:#00FF48;stroke-width:1;" /></g></svg>