<?xml version="1.0" standalone="no"?><!DOCTYPE svg PUBLIC "-//W3C//DTD SVG 1.1//EN" "http://www.w3.org/Graphics/SVG/1.1/DTD/svg11.dtd"><svg xmlns="http://www.w3.org/2000/svg" viewBox="0 0 650 400" version="1.1"><clipPath id="box"><rect x="0" y="0" width="650" height="400" style="fill:none;stroke:none;" /></clipPath><g clip-path="url(#box)"><rect x="0.00" y="0.00" width="650.00" height="400.00" style="fill:#FFFFFF;stroke:none;" /><path d="M31.87 0.00 L31.87 400.00 " style="fill:none;stroke:#000000;stroke-width:1;" /><path d="M0.00 368.82 L650.00 368.82 " style="fill:none;stroke:#000000;stroke-width:1;" /><text x="39.99704191876583" y="371.3215569452858" text-anchor="start" style="font:10px Droid Sans,Trebuchet MS,Arial,Helvetica,sans-serif;stroke:none;fill:#000000">0</text><text x="39.99704191876583" y="307.3499713292272" text-anchor="start" style="font:10px Droid Sans,Trebuchet MS,Arial,Helvetica,sans-serif;stroke:none;fill:#000000">50</text><text x="39.99704191876583" y="243.37838571316857" text-anchor="start" style="font:10px Droid Sans,Trebuchet MS,Arial,Helvetica,sans-serif;stroke:none;fill:#000000">100</text><text x="39.99704191876583" y="179.40680009711" text-anchor="start" style="font:10px Droid Sans,Trebuchet MS,Arial,Helvetica,sans-serif;stroke:none;fill:#000000">150</text><text x="39.99704191876583" y="115.43521448105142" text-anchor="start" style="font:10px Droid Sans,Trebuchet MS,Arial,Helvetica,sans-serif;stroke:none;fill:#000000">200</text><text x="39.99704191876583" y="51.46362886499282" text-anchor="start" style="font:10px Droid Sans,Trebuchet MS,Arial,Helvetica,sans-serif;stroke:none;fill:#000000">250</text><text x="31.872041918765827" y="384.9465569452858" text-anchor="middle" style="font:10px Droid Sans,Trebuchet MS,Arial,Helvetica,sans-serif;stroke:none;fill:#000000">0</text><text x="73.45357256920391" y="384.9465569452858" text-anchor="middle" style="font:10px Droid Sans,Trebuchet MS,Arial,Helvetica,sans-serif;stroke:none;fill:#000000">20</text><text x="115.03510321964201" y="384.9465569452858" text-anchor="middle" style="font:10px Droid Sans,Trebuchet MS,Arial,Helvetica,sans-serif;stroke:none;fill:#000000">40</text><text x="156.6166338700801" y="384.9465569452858" text-anchor="middle" style="font:10px Droid Sans,Trebuchet MS,Arial,Helvetica,sans-serif;stroke:none;fill:#000000">60</text><text x="198.1981645205182" y="384.9465569452858" text-anchor="middle" style="font:10px Droid Sans,Trebuchet MS,Arial,Helvetica,sans-serif;stroke:none;fill:#000000">80</text><text x="239.77969517095627" y="384.9465569452858" text-anchor="middle" style="font:10px Droid Sans,Trebuchet MS,Arial,Helvetica,sans-serif;stroke:none;fill:#000000">100</text><text x="281.3612258213944" y="384.9465569452858" text-anchor="middle" style="font:10px Droid Sans,Trebuchet MS,Arial,Helvetica,sans-serif;stroke:none;fill:#000000">120</text><text x="322.94275647183247" y="384.9465569452858" text-anchor="middle" style="font:10px Droid Sans,Trebuchet MS,Arial,Helvetica,sans-serif;stroke:none;fill:#000000">140</text><text x="364.52428712227055" y="384.9465569452858" text-anchor="middle" style="font:10px Droid Sans,Trebuchet MS,Arial,Helvetica,sans-serif;stroke:none;fill:#000000">160</text><text x="406.1058177727087" y="384.9465569452858" text-anchor="middle" style="font:10px Droid Sans,Trebuchet MS,Arial,Helvetica,sans-serif;stroke:none;fill:#000000">180</text><text x="447.6873484231467" y="384.9465569452858" text-anchor="middle" style="font:10px Droid Sans,Trebuchet MS,Arial,Helvetica,sans-serif;stroke:none;fill:#000000">200</text><text x="489.26887907358486" y="384.9465569452858" text-anchor="middle" style="font:10px Droid Sans,Trebuchet MS,Arial,Helvetica,sans-serif;stroke:none;fill:#000000">220</text><text x="530.8504097240229" y="384.9465569452858" text-anchor="middle" style="font:10px Droid Sans,Trebuchet MS,Arial,Helvetica,sans-serif;stroke:none;fill:#000000">240</text><text x="572.431940374461" y="384.9465569452858" text-anchor="middle" style="font:10px Droid Sans,Trebuchet MS,Arial,Helvetica,sans-serif;stroke:none;fill:#000000">260</text><text x="614.0134710248991" y="384.9465569452858" text-anchor="middle" style="font:10px Droid Sans,Trebuchet MS,Arial,Helvetica,sans-serif;stroke:none;fill:#000000">280</text><path d="M-10.00 200.00 L-0.25 388.59 L0.75 387.97 L2.38 386.97 L4.00 385.97 L5.63 384.97 L7.25 383.97 L8.88 382.97 L10.50 381.97 L12.13 380.97 L13.75 379.97 L15.38 378.97 L17.00 377.97 L18.63 376.97 L20.25 375.97 L21.88 374.97 L23.50 373.97 L25.13 372.97 L26.75 371.97 L28.38 370.97 L30.00 369.97 L31.63 368.97 L33.25 367.97 L34.88 366.97 L36.50 365.97 L38.13 364.97 L39.75 363.97 L41.38 362.97 L43.00 361.97 L44.63 360.97 L46.25 359.97 L47.88 358.97 L49.50 357.97 L51.13 356.97 L52.75 355.97 L54.38 354.97 L56.00 353.97 L57.63 352.97 L59.25 351.97 L60.88 350.97 L62.50 349.97 L64.13 348.97 L65.75 347.97 L67.38 346.97 L69.00 345.97 L70.63 344.97 L72.25 343.97 L73.88 342.97 L75.50 341.97 L77.13 340.97 L78.75 339.97 L80.38 338.97 L82.00 337.97 L83.63 336.97 L85.25 335.97 L86.88 334.97 L88.50 333.97 L90.13 332.97 L91.75 331.97 L93.38 330.97 L95.00 329.97 L96.63 328.97 L98.25 327.97 L99.88 326.97 L101.50 325.97 L103.13 324.97 L104.75 323.97 L106.38 322.97 L108.00 321.97 L109.63 320.97 L111.25 319.97 L112.88 318.97 L114.50 317.97 L116.13 316.97 L117.75 315.97 L119.38 314.97 L121.00 313.97 L122.63 312.97 L124.25 311.97 L125.88 310.97 L127.50 309.97 L129.13 308.97 L130.75 307.97 L132.38 306.97 L134.00 305.97 L135.63 304.97 L137.25 303.97 L138.88 302.97 L140.50 301.97 L142.13 300.97 L143.75 299.97 L145.38 298.97 L147.00 297.97 L148.63 296.97 L150.25 295.97 L151.88 294.97 L153.50 293.97 L155.13 292.97 L156.75 291.97 L158.38 290.97 L160.00 289.97 L161.63 288.97 L163.25 287.97 L164.88 286.97 L166.50 285.97 L168.13 284.97 L169.75 283.97 L171.38 282.97 L173.00 281.97 L174.63 280.97 L176.25 279.97 L177.88 278.97 L179.50 277.97 L181.13 276.97 L182.75 275.97 L184.38 274.97 L186.00 273.97 L187.63 272.97 L189.25 271.97 L190.88 270.97 L192.50 269.97 L194.13 268.97 L195.75 267.97 L197.38 266.97 L199.00 265.97 L200.63 264.97 L202.25 263.97 L203.88 262.97 L205.50 261.97 L207.13 260.97 L208.75 259.97 L210.38 258.97 L212.00 257.97 L213.63 256.97 L215.25 255.97 L216.88 254.97 L218.50 253.97 L220.13 252.97 L221.75 251.97 L223.38 250.97 L225.00 249.97 L226.63 248.97 L228.25 247.97 L229.88 246.97 L231.50 245.97 L233.13 244.97 L234.75 243.97 L236.38 242.97 L238.00 241.97 L239.63 240.97 L241.25 239.97 L242.88 238.97 L244.50 237.97 L246.13 236.97 L247.75 235.97 L249.38 234.97 L251.00 233.97 L252.63 232.97 L254.25 231.97 L255.88 230.97 L257.50 229.97 L259.13 228.97 L260.75 227.97 L262.38 226.97 L264.00 225.97 L265.63 224.97 L267.25 223.97 L268.88 222.97 L270.50 221.97 L272.13 220.97 L273.75 219.97 L275.38 218.97 L277.00 217.97 L278.63 216.97 L280.25 215.97 L281.88 214.97 L283.50 213.97 L285.13 212.97 L286.75 211.97 L288.38 210.97 L290.00 209.97 L291.63 208.97 L293.25 207.97 L294.88 206.97 L296.50 205.97 L298.13 204.97 L299.75 203.97 L301.38 202.97 L303.00 201.97 L304.63 200.97 L306.25 199.97 L307.88 198.97 L309.50 197.97 L311.13 196.97 L312.75 195.97 L314.38 194.97 L316.00 193.97 L317.63 192.97 L319.25 191.97 L320.88 190.97 L322.50 189.97 L324.13 188.97 L325.75 187.97 L327.38 186.97 L329.00 185.97 L330.63 184.97 L332.25 183.97 L333.88 182.97 L335.50 181.97 L337.13 180.97 L338.75 179.97 L340.38 178.97 L342.00 177.97 L343.63 176.97 L345.25 175.97 L346.88 174.97 L348.50 173.97 L350.13 172.97 L351.75 171.97 L353.38 170.97 L355.00 169.97 L356.63 168.97 L358.25 167.97 L359.88 166.97 L361.50 165.97 L363.13 164.97 L364.75 163.97 L366.38 162.97 L368.00 161.97 L369.63 160.97 L371.25 159.97 L372.88 158.97 L374.50 157.97 L376.13 156.97 L377.75 155.97 L379.38 154.97 L381.00 153.97 L382.63 152.97 L384.25 151.97 L385.88 150.97 L387.50 149.97 L389.13 148.97 L390.75 147.97 L392.38 146.97 L394.00 145.97 L395.63 144.97 L397.25 143.97 L398.88 142.97 L400.50 141.97 L402.13 140.97 L403.75 139.97 L405.38 138.97 L407.00 137.97 L408.63 136.97 L410.25 135.97 L411.88 134.97 L413.50 133.97 L415.13 132.97 L416.75 131.97 L418.38 130.97 L420.00 129.97 L421.63 128.97 L423.25 127.97 L424.88 126.97 L426.50 125.97 L428.13 124.97 L429.75 123.97 L431.38 122.97 L433.00 121.97 L434.63 120.97 L436.25 119.97 L437.88 118.97 L439.50 117.97 L441.13 116.97 L442.75 115.97 L444.38 114.97 L446.00 113.97 L447.63 112.97 L449.25 111.97 L450.88 110.97 L452.50 109.97 L454.13 108.97 L455.75 107.97 L457.38 106.97 L459.00 105.97 L460.63 104.97 L462.25 103.97 L463.88 102.97 L465.50 101.97 L467.13 100.97 L468.75 99.97 L470.38 98.97 L472.00 97.97 L473.63 96.97 L475.25 95.97 L476.88 94.97 L478.50 93.97 L480.13 92.97 L481.75 91.97 L483.38 90.97 L485.00 89.97 L486.63 88.97 L488.25 87.97 L489.88 86.97 L491.50 85.97 L493.13 84.97 L494.75 83.97 L496.38 82.97 L498.00 81.97 L499.63 80.97 L501.25 79.97 L502.88 78.97 L504.50 77.97 L506.13 76.97 L507.75 75.97 L509.38 74.97 L511.00 73.97 L512.63 72.97 L514.25 71.97 L515.88 70.97 L517.50 69.97 L519.13 68.97 L520.75 67.97 L522.38 66.97 L524.00 65.97 L525.63 64.97 L527.25 63.97 L528.88 62.97 L530.50 61.97 L532.13 60.97 L533.75 59.97 L535.38 58.97 L537.00 57.97 L538.63 56.97 L540.25 55.97 L541.88 54.97 L543.50 53.97 L545.13 52.97 L546.75 51.97 L548.38 50.97 L550.00 49.97 L551.63 48.97 L553.25 47.97 L554.88 46.97 L556.50 45.97 L558.13 44.97 L559.75 43.97 L561.38 42.97 L563.00 41.97 L564.63 40.97 L566.25 39.97 L567.88 38.97 L569.50 37.97 L571.13 36.97 L572.75 35.97 L574.38 34.97 L576.00 33.97 L577.63 32.97 L579.25 31.97 L580.88 30.97 L582.50 29.97 L584.13 28.97 L585.75 27.97 L587.38 26.97 L589.00 25.97 L590.63 24.97 L592.25 23.97 L593.88 22.97 L595.50 21.97 L597.13 20.97 L598.75 19.97 L600.38 18.97 L602.00 17.97 L603.63 16.97 L605.25 15.97 L606.88 14.97 L608.50 13.97 L610.13 12.97 L611.75 11.97 L613.38 10.97 L615.00 9.97 L616.63 8.97 L618.25 7.97 L619.88 6.97 L621.50 5.97 L623.13 4.97 L624.75 3.97 L626.38 2.97 L628.00 1.97 L629.63 0.97 L631.25 -0.03 " style="fill:none;stroke:#FF0000;stroke-width:1;" /><path d="M6.54 400.00 L6.54 400.00 L7.35 399.00 L8.17 398.00 L8.98 397.00 L9.79 396.00 L10.60 395.00 L11.42 394.00 L12.23 393.00 L13.04 392.00 L13.85 391.00 L14.67 390.00 L15.48 389.00 L16.29 388.00 L17.10 387.00 L17.92 386.00 L18.73 385.00 L19.54 384.00 L20.35 383.00 L21.17 382.00 L21.98 381.00 L22.79 380.00 L23.60 379.00 L24.42 378.00 L25.23 377.00 L26.04 376.00 L26.85 375.00 L27.67 374.00 L28.48 373.00 L29.29 372.00 L30.10 371.00 L30.92 370.00 L31.73 369.00 L32.54 368.00 L33.35 367.00 L34.17 366.00 L34.98 365.00 L35.79 364.00 L36.60 363.00 L37.42 362.00 L38.23 361.00 L39.04 360.00 L39.85 359.00 L40.67 358.00 L41.48 357.00 L42.29 356.00 L43.10 355.00 L43.92 354.00 L44.73 353.00 L45.54 352.00 L46.35 351.00 L47.17 350.00 L47.98 349.00 L48.79 348.00 L49.60 347.00 L50.42 346.00 L51.23 345.00 L52.04 344.00 L52.85 343.00 L53.67 342.00 L54.48 341.00 L55.29 340.00 L56.10 339.00 L56.92 338.00 L57.73 337.00 L58.54 336.00 L59.35 335.00 L60.17 334.00 L60.98 333.00 L61.79 332.00 L62.60 331.00 L63.42 330.00 L64.23 329.00 L65.04 328.00 L65.85 327.00 L66.67 326.00 L67.48 325.00 L68.29 324.00 L69.10 323.00 L69.92 322.00 L70.73 321.00 L71.54 320.00 L72.35 319.00 L73.17 318.00 L73.98 317.00 L74.79 316.00 L75.60 315.00 L76.42 314.00 L77.23 313.00 L78.04 312.00 L78.85 311.00 L79.67 310.00 L80.48 309.00 L81.29 308.00 L82.10 307.00 L82.92 306.00 L83.73 305.00 L84.54 304.00 L85.35 303.00 L86.17 302.00 L86.98 301.00 L87.79 300.00 L88.60 299.00 L89.42 298.00 L90.23 297.00 L91.04 296.00 L91.85 295.00 L92.67 294.00 L93.48 293.00 L94.29 292.00 L95.10 291.00 L95.92 290.00 L96.73 289.00 L97.54 288.00 L98.35 287.00 L99.17 286.00 L99.98 285.00 L100.79 284.00 L101.60 283.00 L102.42 282.00 L103.23 281.00 L104.04 280.00 L104.85 279.00 L105.67 278.00 L106.48 277.00 L107.29 276.00 L108.10 275.00 L108.92 274.00 L109.73 273.00 L110.54 272.00 L111.35 271.00 L112.17 270.00 L112.98 269.00 L113.79 268.00 L114.60 267.00 L115.42 266.00 L116.23 265.00 L117.04 264.00 L117.85 263.00 L118.67 262.00 L119.48 261.00 L120.29 260.00 L121.10 259.00 L121.92 258.00 L122.73 257.00 L123.54 256.00 L124.35 255.00 L125.17 254.00 L125.98 253.00 L126.79 252.00 L127.60 251.00 L128.42 250.00 L129.23 249.00 L130.04 248.00 L130.85 247.00 L131.67 246.00 L132.48 245.00 L133.29 244.00 L134.10 243.00 L134.92 242.00 L135.73 241.00 L136.54 240.00 L137.35 239.00 L138.17 238.00 L138.98 237.00 L139.79 236.00 L140.60 235.00 L141.42 234.00 L142.23 233.00 L143.04 232.00 L143.85 231.00 L144.67 230.00 L145.48 229.00 L146.29 228.00 L147.10 227.00 L147.92 226.00 L148.73 225.00 L149.54 224.00 L150.35 223.00 L151.17 222.00 L151.98 221.00 L152.79 220.00 L153.60 219.00 L154.42 218.00 L155.23 217.00 L156.04 216.00 L156.85 215.00 L157.67 214.00 L158.48 213.00 L159.29 212.00 L160.10 211.00 L160.92 210.00 L161.73 209.00 L162.54 208.00 L163.35 207.00 L164.17 206.00 L164.98 205.00 L165.79 204.00 L166.60 203.00 L167.42 202.00 L168.23 201.00 L169.04 200.00 L169.85 199.00 L170.67 198.00 L171.48 197.00 L172.29 196.00 L173.10 195.00 L173.92 194.00 L174.73 193.00 L175.54 192.00 L176.35 191.00 L177.17 190.00 L177.98 189.00 L178.79 188.00 L179.60 187.00 L180.42 186.00 L181.23 185.00 L182.04 184.00 L182.85 183.00 L183.67 182.00 L184.48 181.00 L185.29 180.00 L186.10 179.00 L186.92 178.00 L187.73 177.00 L188.54 176.00 L189.35 175.00 L190.17 174.00 L190.98 173.00 L191.79 172.00 L192.60 171.00 L193.42 170.00 L194.23 169.00 L195.04 168.00 L195.85 167.00 L196.67 166.00 L197.48 165.00 L198.29 164.00 L199.10 163.00 L199.92 162.00 L200.73 161.00 L201.54 160.00 L202.35 159.00 L203.17 158.00 L203.98 157.00 L204.79 156.00 L205.60 155.00 L206.42 154.00 L207.23 153.00 L208.04 152.00 L208.85 151.00 L209.67 150.00 L210.48 149.00 L211.29 148.00 L212.10 147.00 L212.92 146.00 L213.73 145.00 L214.54 144.00 L215.35 143.00 L216.17 142.00 L216.98 141.00 L217.79 140.00 L218.60 139.00 L219.42 138.00 L220.23 137.00 L221.04 136.00 L221.85 135.00 L222.67 134.00 L223.48 133.00 L224.29 132.00 L225.10 131.00 L225.92 130.00 L226.73 129.00 L227.54 128.00 L228.35 127.00 L229.17 126.00 L229.98 125.00 L230.79 124.00 L231.60 123.00 L232.42 122.00 L233.23 121.00 L234.04 120.00 L234.85 119.00 L235.67 118.00 L236.48 117.00 L237.29 116.00 L238.10 115.00 L238.92 114.00 L239.73 113.00 L240.54 112.00 L241.35 111.00 L242.17 110.00 L242.98 109.00 L243.79 108.00 L244.60 107.00 L245.42 106.00 L246.23 105.00 L247.04 104.00 L247.85 103.00 L248.67 102.00 L249.48 101.00 L250.29 100.00 L251.10 99.00 L251.92 98.00 L252.73 97.00 L253.54 96.00 L254.35 95.00 L255.17 94.00 L255.98 93.00 L256.79 92.00 L257.60 91.00 L258.42 90.00 L259.23 89.00 L260.04 88.00 L260.85 87.00 L261.67 86.00 L262.48 85.00 L263.29 84.00 L264.10 83.00 L264.92 82.00 L265.73 81.00 L266.54 80.00 L267.35 79.00 L268.17 78.00 L268.98 77.00 L269.79 76.00 L270.60 75.00 L271.42 74.00 L272.23 73.00 L273.04 72.00 L273.85 71.00 L274.67 70.00 L275.48 69.00 L276.29 68.00 L277.10 67.00 L277.92 66.00 L278.73 65.00 L279.54 64.00 L280.35 63.00 L281.17 62.00 L281.98 61.00 L282.79 60.00 L283.60 59.00 L284.42 58.00 L285.23 57.00 L286.04 56.00 L286.85 55.00 L287.67 54.00 L288.48 53.00 L289.29 52.00 L290.10 51.00 L290.92 50.00 L291.73 49.00 L292.54 48.00 L293.35 47.00 L294.17 46.00 L294.98 45.00 L295.79 44.00 L296.60 43.00 L297.42 42.00 L298.23 41.00 L299.04 40.00 L299.85 39.00 L300.67 38.00 L301.48 37.00 L302.29 36.00 L303.10 35.00 L303.92 34.00 L304.73 33.00 L305.54 32.00 L306.35 31.00 L307.17 30.00 L307.98 29.00 L308.79 28.00 L309.60 27.00 L310.42 26.00 L311.23 25.00 L312.04 24.00 L312.85 23.00 L313.67 22.00 L314.48 21.00 L315.29 20.00 L316.10 19.00 L316.92 18.00 L317.73 17.00 L318.54 16.00 L319.35 15.00 L320.17 14.00 L320.98 13.00 L321.79 12.00 L322.60 11.00 L323.42 10.00 L324.23 9.00 L325.04 8.00 L325.85 7.00 L326.67 6.00 L327.48 5.00 L328.29 4.00 L329.10 3.00 L329.92 2.00 L330.73 1.00 L331.54 -0.00 " style="fill:none;stroke:#2B00FF;stroke-width:1;" /><path d="M-10.00 200.00 L-0.25 63.42 L0.75 82.14 L0.80 83.12 L0.86 84.12 L0.91 85.12 L0.97 86.11 L1.02 87.11 L1.08 88.11 L1.13 89.11 L1.19 90.11 L1.24 91.11 L1.30 92.10 L1.35 93.10 L1.41 94.10 L1.46 95.10 L1.52 96.10 L1.57 97.09 L1.63 98.09 L1.68 99.09 L1.74 100.09 L1.80 101.09 L1.85 102.09 L1.91 103.08 L1.97 104.08 L2.02 105.08 L2.08 106.08 L2.13 107.08 L2.19 108.07 L2.25 109.07 L2.31 110.07 L2.36 111.07 L2.42 112.07 L2.48 113.06 L2.53 114.06 L2.59 115.06 L2.65 116.06 L2.71 117.06 L2.77 118.05 L2.82 119.05 L2.88 120.05 L2.94 121.05 L3.00 122.05 L3.06 123.04 L3.11 124.04 L3.17 125.04 L3.23 126.04 L3.29 127.04 L3.35 128.03 L3.41 129.03 L3.47 130.03 L3.53 131.03 L3.59 132.03 L3.65 133.02 L3.71 134.02 L3.77 135.02 L3.83 136.02 L3.89 137.02 L3.95 138.01 L4.01 139.01 L4.07 140.01 L4.13 141.01 L4.19 142.00 L4.25 143.00 L4.31 144.00 L4.37 145.00 L4.43 146.00 L4.50 146.99 L4.56 147.99 L4.62 148.99 L4.68 149.99 L4.74 150.98 L4.81 151.98 L4.87 152.98 L4.93 153.98 L4.99 154.98 L5.06 155.97 L5.12 156.97 L5.18 157.97 L5.25 158.97 L5.31 159.96 L5.37 160.96 L5.44 161.96 L5.50 162.96 L5.56 163.95 L5.63 164.95 L5.69 165.95 L5.76 166.95 L5.82 167.94 L5.89 168.94 L5.95 169.94 L6.02 170.94 L6.08 171.93 L6.15 172.93 L6.21 173.93 L6.28 174.93 L6.34 175.92 L6.41 176.92 L6.48 177.92 L6.54 178.92 L6.61 179.91 L6.68 180.91 L6.74 181.91 L6.81 182.91 L6.88 183.90 L6.94 184.90 L7.01 185.90 L7.08 186.89 L7.15 187.89 L7.22 188.89 L7.28 189.89 L7.35 190.88 L7.42 191.88 L7.49 192.88 L7.56 193.88 L7.63 194.87 L7.70 195.87 L7.77 196.87 L7.84 197.86 L7.91 198.86 L7.98 199.86 L8.05 200.85 L8.12 201.85 L8.19 202.85 L8.26 203.85 L8.33 204.84 L8.41 205.84 L8.48 206.84 L8.55 207.83 L8.62 208.83 L8.70 209.83 L8.77 210.82 L8.84 211.82 L8.91 212.82 L8.99 213.82 L9.06 214.81 L9.14 215.81 L9.21 216.81 L9.28 217.80 L9.36 218.80 L9.43 219.80 L9.51 220.79 L9.58 221.79 L9.66 222.79 L9.74 223.78 L9.81 224.78 L9.89 225.78 L9.97 226.77 L10.04 227.77 L10.12 228.76 L10.20 229.76 L10.27 230.76 L10.35 231.75 L10.43 232.75 L10.51 233.75 L10.59 234.74 L10.67 235.74 L10.75 236.74 L10.83 237.73 L10.91 238.73 L10.99 239.72 L11.07 240.72 L11.15 241.72 L11.23 242.71 L11.31 243.71 L11.39 244.70 L11.48 245.70 L11.56 246.70 L11.64 247.69 L11.73 248.69 L11.81 249.68 L11.89 250.68 L11.98 251.68 L12.06 252.67 L12.15 253.67 L12.23 254.66 L12.32 255.66 L12.41 256.65 L12.49 257.65 L12.58 258.65 L12.67 259.64 L12.75 260.64 L12.84 261.63 L12.93 262.63 L13.02 263.62 L13.11 264.62 L13.20 265.61 L13.29 266.61 L13.38 267.60 L13.47 268.60 L13.56 269.59 L13.65 270.59 L13.75 271.58 L13.84 272.58 L13.93 273.57 L14.03 274.57 L14.12 275.56 L14.22 276.56 L14.31 277.55 L14.41 278.55 L14.50 279.54 L14.60 280.54 L14.70 281.53 L14.80 282.52 L14.90 283.52 L14.99 284.51 L15.09 285.51 L15.20 286.50 L15.30 287.49 L15.40 288.49 L15.50 289.48 L15.60 290.48 L15.71 291.47 L15.81 292.46 L15.92 293.46 L16.02 294.45 L16.13 295.44 L16.23 296.44 L16.34 297.43 L16.45 298.42 L16.56 299.42 L16.67 300.41 L16.78 301.40 L16.89 302.39 L17.00 303.39 L17.12 304.38 L17.23 305.37 L17.35 306.36 L17.46 307.36 L17.58 308.35 L17.70 309.34 L17.81 310.33 L17.93 311.32 L18.06 312.31 L18.18 313.31 L18.30 314.30 L18.42 315.29 L18.55 316.28 L18.67 317.27 L18.80 318.26 L18.93 319.25 L19.06 320.24 L19.19 321.23 L19.32 322.22 L19.46 323.21 L19.59 324.20 L19.73 325.19 L19.87 326.18 L20.01 327.16 L20.15 328.15 L20.29 329.14 L20.44 330.13 L20.59 331.12 L20.73 332.10 L20.88 333.09 L21.04 334.08 L21.19 335.06 L21.35 336.05 L21.51 337.03 L21.67 338.02 L21.83 339.00 L22.00 339.98 L22.17 340.97 L22.34 341.95 L22.52 342.93 L22.70 343.91 L22.88 344.89 L23.07 345.87 L23.26 346.85 L23.45 347.83 L23.65 348.81 L23.85 349.78 L24.06 350.76 L24.27 351.73 L24.49 352.70 L24.72 353.67 L24.95 354.64 L25.19 355.61 L25.44 356.57 L25.70 357.53 L25.96 358.49 L26.24 359.45 L26.54 360.40 L26.85 361.34 L27.17 362.28 L27.52 363.21 L27.89 364.13 L28.30 365.04 L28.74 365.93 L29.25 366.78 L29.84 367.59 L30.56 368.31 L31.57 368.79 L33.57 367.97 L35.57 364.77 L36.20 363.29 L36.62 362.16 L36.99 361.07 L37.33 360.00 L37.65 358.93 L37.95 357.88 L38.24 356.83 L38.51 355.78 L38.77 354.74 L39.02 353.71 L39.26 352.67 L39.49 351.64 L39.72 350.61 L39.93 349.58 L40.15 348.55 L40.35 347.53 L40.56 346.50 L40.75 345.48 L40.94 344.46 L41.13 343.44 L41.32 342.42 L41.50 341.40 L41.68 340.38 L41.85 339.36 L42.02 338.34 L42.19 337.32 L42.35 336.31 L42.52 335.29 L42.68 334.28 L42.83 333.26 L42.99 332.25 L43.14 331.23 L43.29 330.22 L43.44 329.21 L43.59 328.19 L43.73 327.18 L43.88 326.17 L44.02 325.16 L44.16 324.15 L44.30 323.14 L44.43 322.12 L44.57 321.11 L44.70 320.10 L44.83 319.09 L44.96 318.08 L45.09 317.07 L45.22 316.06 L45.35 315.05 L45.48 314.04 L45.60 313.03 L45.72 312.02 L45.85 311.02 L45.97 310.01 L46.09 309.00 L46.21 307.99 L46.33 306.98 L46.44 305.97 L46.56 304.97 L46.68 303.96 L46.79 302.95 L46.90 301.94 L47.02 300.93 L47.13 299.93 L47.24 298.92 L47.35 297.91 L47.46 296.91 L47.57 295.90 L47.68 294.89 L47.78 293.88 L47.89 292.88 L48.00 291.87 L48.10 290.86 L48.21 289.86 L48.31 288.85 L48.41 287.85 L48.51 286.84 L48.62 285.83 L48.72 284.83 L48.82 283.82 L48.92 282.81 L49.02 281.81 L49.12 280.80 L49.21 279.80 L49.31 278.79 L49.41 277.79 L49.51 276.78 L49.60 275.78 L49.70 274.77 L49.79 273.76 L49.89 272.76 L49.98 271.75 L50.07 270.75 L50.17 269.74 L50.26 268.74 L50.35 267.73 L50.44 266.73 L50.54 265.72 L50.63 264.72 L50.72 263.71 L50.81 262.71 L50.90 261.70 L50.98 260.70 L51.07 259.69 L51.16 258.69 L51.25 257.69 L51.34 256.68 L51.42 255.68 L51.51 254.67 L51.60 253.67 L51.68 252.66 L51.77 251.66 L51.85 250.65 L51.94 249.65 L52.02 248.65 L52.11 247.64 L52.19 246.64 L52.27 245.63 L52.36 244.63 L52.44 243.63 L52.52 242.62 L52.60 241.62 L52.68 240.61 L52.77 239.61 L52.85 238.61 L52.93 237.60 L53.01 236.60 L53.09 235.59 L53.17 234.59 L53.25 233.59 L53.33 232.58 L53.41 231.58 L53.48 230.58 L53.56 229.57 L53.64 228.57 L53.72 227.57 L53.80 226.56 L53.87 225.56 L53.95 224.55 L54.03 223.55 L54.10 222.55 L54.18 221.54 L54.25 220.54 L54.33 219.54 L54.41 218.53 L54.48 217.53 L54.56 216.53 L54.63 215.52 L54.70 214.52 L54.78 213.52 L54.85 212.51 L54.93 211.51 L55.00 210.51 L55.07 209.50 L55.15 208.50 L55.22 207.50 L55.29 206.50 L55.36 205.49 L55.43 204.49 L55.51 203.49 L55.58 202.48 L55.65 201.48 L55.72 200.48 L55.79 199.47 L55.86 198.47 L55.93 197.47 L56.00 196.47 L56.07 195.46 L56.14 194.46 L56.21 193.46 L56.28 192.45 L56.35 191.45 L56.42 190.45 L56.49 189.45 L56.56 188.44 L56.63 187.44 L56.70 186.44 L56.76 185.43 L56.83 184.43 L56.90 183.43 L56.97 182.43 L57.03 181.42 L57.10 180.42 L57.17 179.42 L57.24 178.42 L57.30 177.41 L57.37 176.41 L57.43 175.41 L57.50 174.40 L57.57 173.40 L57.63 172.40 L57.70 171.40 L57.76 170.39 L57.83 169.39 L57.89 168.39 L57.96 167.39 L58.02 166.38 L58.09 165.38 L58.15 164.38 L58.22 163.38 L58.28 162.37 L58.35 161.37 L58.41 160.37 L58.47 159.37 L58.54 158.36 L58.60 157.36 L58.66 156.36 L58.73 155.36 L58.79 154.36 L58.85 153.35 L58.92 152.35 L58.98 151.35 L59.04 150.35 L59.10 149.34 L59.16 148.34 L59.23 147.34 L59.29 146.34 L59.35 145.33 L59.41 144.33 L59.47 143.33 L59.53 142.33 L59.60 141.33 L59.66 140.32 L59.72 139.32 L59.78 138.32 L59.84 137.32 L59.90 136.31 L59.96 135.31 L60.02 134.31 L60.08 133.31 L60.14 132.31 L60.20 131.30 L60.26 130.30 L60.32 129.30 L60.38 128.30 L60.44 127.30 L60.50 126.29 L60.56 125.29 L60.61 124.29 L60.67 123.29 L60.73 122.29 L60.79 121.28 L60.85 120.28 L60.91 119.28 L60.97 118.28 L61.02 117.28 L61.08 116.27 L61.14 115.27 L61.20 114.27 L61.26 113.27 L61.31 112.27 L61.37 111.26 L61.43 110.26 L61.49 109.26 L61.54 108.26 L61.60 107.26 L61.66 106.25 L61.71 105.25 L61.77 104.25 L61.83 103.25 L61.88 102.25 L61.94 101.24 L62.00 100.24 L62.05 99.24 L62.11 98.24 L62.16 97.24 L62.22 96.24 L62.27 95.23 L62.33 94.23 L62.39 93.23 L62.44 92.23 L62.50 91.23 L62.55 90.22 L62.61 89.22 L62.66 88.22 L62.72 87.22 L62.77 86.22 L62.83 85.22 L62.88 84.21 L62.94 83.21 L62.99 82.21 L63.04 81.21 L63.10 80.21 L63.15 79.20 L63.21 78.20 L63.26 77.20 L63.31 76.20 L63.37 75.20 L63.42 74.20 L63.48 73.19 L63.53 72.19 L63.58 71.19 L63.64 70.19 L63.69 69.19 L63.74 68.19 L63.80 67.18 L63.85 66.18 L63.90 65.18 L63.95 64.18 L64.01 63.18 L64.06 62.18 L64.11 61.17 L64.16 60.17 L64.22 59.17 L64.27 58.17 L64.32 57.17 L64.37 56.17 L64.42 55.16 L64.48 54.16 L64.53 53.16 L64.58 52.16 L64.63 51.16 L64.68 50.16 L64.74 49.16 L64.79 48.15 L64.84 47.15 L64.89 46.15 L64.94 45.15 L64.99 44.15 L65.04 43.15 L65.09 42.14 L65.14 41.14 L65.20 40.14 L65.25 39.14 L65.30 38.14 L65.35 37.14 L65.40 36.14 L65.45 35.13 L65.50 34.13 L65.55 33.13 L65.60 32.13 L65.65 31.13 L65.70 30.13 L65.75 29.12 L65.80 28.12 L65.85 27.12 L65.90 26.12 L65.95 25.12 L66.00 24.12 L66.05 23.12 L66.10 22.11 L66.15 21.11 L66.20 20.11 L66.24 19.11 L66.29 18.11 L66.34 17.11 L66.39 16.11 L66.44 15.10 L66.49 14.10 L66.54 13.10 L66.59 12.10 L66.64 11.10 L66.69 10.10 L66.73 9.10 L66.78 8.09 L66.83 7.09 L66.88 6.09 L66.93 5.09 L66.98 4.09 L67.02 3.09 L67.07 2.09 L67.12 1.09 L67.17 0.08 L67.22 -0.92 " style="fill:none;stroke:#00FF48;stroke-width:1;" /></g></svg>